<svg width="100" height="100" viewBox="0 0 100 100" fill="none" xmlns="http://www.w3.org/2000/svg">
<g clip-path="url(#clip0_330_200)">
<path fill-rule="evenodd" clip-rule="evenodd" d="M50 100C77.6143 100 100 77.6143 100 50C100 22.3858 77.6143 0 50 0C22.3858 0 0 22.3858 0 50C0 77.6143 22.3858 100 50 100Z" fill="#9263D5"/>
<path fill-rule="evenodd" clip-rule="evenodd" d="M50.0002 90.1667C72.1835 90.1667 90.1668 72.1833 90.1668 50C90.1668 27.8166 72.1835 9.83333 50.0002 9.83333C27.8167 9.83333 9.8335 27.8166 9.8335 50C9.8335 72.1833 27.8167 90.1667 50.0002 90.1667Z" fill="#E8D41A"/>
<path fill-rule="evenodd" clip-rule="evenodd" d="M49.9998 86.3333C70.0662 86.3333 86.3332 70.0663 86.3332 50C86.3332 29.9337 70.0662 13.6667 49.9998 13.6667C29.9335 13.6667 13.6665 29.9337 13.6665 50C13.6665 70.0663 29.9335 86.3333 49.9998 86.3333Z" fill="#9263D5"/>
<path fill-rule="evenodd" clip-rule="evenodd" d="M50 50C77.6143 50 100 50 100 50C100 22.3858 77.6143 0 50 0C22.3858 0 0 22.3858 0 50C0 50 22.3858 50 50 50Z" fill="#9263D5"/>
<path fill-rule="evenodd" clip-rule="evenodd" d="M49.9998 18.1667L62.6998 37.9713L49.9998 57.8333L37.2998 37.9713L49.9998 18.1667Z" fill="#E8D41A"/>
<path d="M11.7502 51.9333C12.8087 51.9333 13.6668 51.0752 13.6668 50.0167C13.6668 48.9581 12.8087 48.1 11.7502 48.1C10.6916 48.1 9.8335 48.9581 9.8335 50.0167C9.8335 51.0752 10.6916 51.9333 11.7502 51.9333Z" fill="#E8D41A"/>
<path d="M88.2502 51.9333C89.3087 51.9333 90.1668 51.0752 90.1668 50.0167C90.1668 48.9581 89.3087 48.1 88.2502 48.1C87.1916 48.1 86.3335 48.9581 86.3335 50.0167C86.3335 51.0752 87.1916 51.9333 88.2502 51.9333Z" fill="#E8D41A"/>
</g>
<defs>
<clipPath id="clip0_330_200">
<rect width="100" height="100" fill="white"/>
</clipPath>
</defs>
</svg>
