<svg width="540" height="171" viewBox="0 0 540 171" fill="none" xmlns="http://www.w3.org/2000/svg">
<g clip-path="url(#clip0_217_62)">
<mask id="mask0_217_62" style="mask-type:alpha" maskUnits="userSpaceOnUse" x="-523" y="0" width="1063" height="171">
<path d="M530 0H-513C-518.523 0 -523 4.47715 -523 10V161C-523 166.523 -518.523 171 -513 171H530C535.523 171 540 166.523 540 161V10C540 4.47715 535.523 0 530 0Z" fill="#9263D5"/>
</mask>
<g mask="url(#mask0_217_62)">
<path d="M38.7072 159.095C160.516 159.45 304.839 195.537 311.38 242.016C311.933 245.948 314.18 249.724 318.013 250.769L354.846 260.815C359.385 262.053 364.116 259.094 364.902 254.418C370.401 221.688 372.351 181.902 365.336 166.106C330.527 102.215 104.635 84.0903 43.18 84.7836C40.8614 84.8098 38.7726 85.8718 37.2496 87.6537L15.2817 113.357C13.1055 115.903 12.6911 119.479 14.2389 122.354L31.8157 155.011C33.1741 157.534 35.8005 159.086 38.7072 159.095Z" fill="url(#paint0_linear_217_62)"/>
<path d="M193.851 87.0041C322.7 131.998 457.452 222.226 438.764 271.627C437.398 275.236 437.893 279.292 441.037 281.498L476.002 306.026C479.782 308.678 485.629 307.622 488.441 303.704C510.949 272.342 533.504 232.036 534.095 213.254C529.688 135.599 300.612 34.7059 236.064 13.2341C233.806 12.4829 231.326 12.7648 229.079 13.892L191.763 32.6127C188.701 34.1491 186.812 37.0818 186.964 40.063L189.056 80.9635C189.197 83.7111 191.034 86.0206 193.851 87.0041Z" fill="url(#paint1_linear_217_62)"/>
</g>
</g>
<defs>
<linearGradient id="paint0_linear_217_62" x1="115.123" y1="128.528" x2="270.729" y2="256.178" gradientUnits="userSpaceOnUse">
<stop stop-color="#E8D41A"/>
<stop offset="1" stop-color="#E8D41A" stop-opacity="0"/>
</linearGradient>
<linearGradient id="paint1_linear_217_62" x1="289.964" y1="83.9492" x2="387.937" y2="270.89" gradientUnits="userSpaceOnUse">
<stop stop-color="#E8D41A"/>
<stop offset="1" stop-color="#E8D41A" stop-opacity="0"/>
</linearGradient>
<clipPath id="clip0_217_62">
<rect width="540" height="171" fill="white"/>
</clipPath>
</defs>
</svg>
