<svg width="628" height="130" viewBox="0 0 628 130" fill="none" xmlns="http://www.w3.org/2000/svg">
<rect y="0.811523" width="628" height="129.189" rx="10" fill="#9263D5"/>
<mask id="mask0_198_17158" style="mask-type:alpha" maskUnits="userSpaceOnUse" x="0" y="0" width="628" height="130">
<rect y="0.811523" width="628" height="129.189" rx="10" fill="#9263D5"/>
</mask>
<g mask="url(#mask0_198_17158)">
<path d="M356.14 116.021C423.383 116.928 501.526 142.018 507.325 174.459C507.993 178.195 510.074 181.839 513.658 183.089L527.864 188.043C532.574 189.686 537.589 186.68 538.19 181.741C540.986 158.738 541.826 131.98 538.036 121.066C518.725 75.7392 395.372 62.2796 357.968 62.2704C355.411 62.2698 353.108 63.5845 351.692 65.7032L340.516 82.4264C339.028 84.6524 338.762 87.487 339.808 89.9725L348.667 111.019C349.934 114.03 352.886 115.977 356.14 116.021Z" fill="url(#paint0_linear_198_17158)"/>
<path d="M443.266 64.8601C514.181 97.1249 587.413 159.759 580.01 195.47C579.222 199.272 579.825 203.573 582.716 206.166L597.554 219.477C601.251 222.794 606.838 221.984 609.194 217.687C621.374 195.478 633.106 168.16 633.427 155.144C630.973 99.8445 505.26 28.2413 466.651 11.2923C464.369 10.2905 461.814 10.5329 459.753 11.855L440.843 23.9864C438.508 25.4845 437.146 28.1765 437.261 31.0632L438.316 57.4367C438.445 60.6652 440.39 63.5514 443.266 64.8601Z" fill="url(#paint1_linear_198_17158)"/>
</g>
<defs>
<linearGradient id="paint0_linear_198_17158" x1="396.608" y1="93.9038" x2="500.852" y2="160.776" gradientUnits="userSpaceOnUse">
<stop stop-color="#E8D41A"/>
<stop offset="1" stop-color="#E8D41A" stop-opacity="0"/>
</linearGradient>
<linearGradient id="paint1_linear_198_17158" x1="495.436" y1="61.6797" x2="575.091" y2="180.533" gradientUnits="userSpaceOnUse">
<stop stop-color="#E8D41A"/>
<stop offset="1" stop-color="#E8D41A" stop-opacity="0"/>
</linearGradient>
</defs>
</svg>
