<svg width="402" height="103" viewBox="0 0 402 103" fill="none" xmlns="http://www.w3.org/2000/svg">
<rect width="402" height="103" rx="5" fill="#9263D5"/>
<mask id="mask0_198_17546" style="mask-type:alpha" maskUnits="userSpaceOnUse" x="0" y="0" width="402" height="103">
<rect width="402" height="103" rx="5" fill="#9263D5"/>
</mask>
<g mask="url(#mask0_198_17546)">
<path d="M297.483 93.6025C327.502 95.2145 361.53 107.325 365.115 121.759C365.688 124.062 366.89 126.407 369.102 127.263L373.104 128.811C376.013 129.936 379.208 128.163 379.655 125.085C381.134 114.901 381.783 103.518 380.282 98.6791C372.187 77.764 316.886 69.6067 298.923 68.8492C297.326 68.7818 295.861 69.5559 294.933 70.8501L290.327 77.2703C289.352 78.6294 289.127 80.3939 289.729 81.9678L292.915 90.3091C293.644 92.2174 295.451 93.4934 297.483 93.6025Z" fill="url(#paint0_linear_198_17546)"/>
<path d="M97.8912 93.602C67.8724 95.214 33.8443 107.324 30.2587 121.758C29.6865 124.062 28.4841 126.406 26.272 127.262L22.2698 128.81C19.3614 129.935 16.1663 128.162 15.7191 125.084C14.2395 114.9 13.5907 103.518 15.0921 98.6786C23.1875 77.7635 78.4886 69.6062 96.4513 68.8487C98.0478 68.7813 99.513 69.5554 100.441 70.8496L105.047 77.2696C106.022 78.6288 106.247 80.3934 105.645 81.9674L102.459 90.3087C101.73 92.2169 99.9228 93.4929 97.8912 93.602Z" fill="url(#paint1_linear_198_17546)"/>
<path d="M338.271 71.7126C369.489 87.4103 400.995 116.111 398.676 132.525C398.335 134.937 398.594 137.651 400.346 139.331L405.06 143.855C407.301 146.005 410.808 145.614 412.344 142.963C418.014 133.175 423.355 121.577 423.687 115.846C423.408 90.599 367.793 56.1414 349.656 47.2833C348.255 46.5994 346.676 46.7081 345.361 47.4912L337.646 52.0869C336.157 52.9739 335.25 54.6268 335.262 56.4323L335.333 66.9606C335.346 68.9804 336.506 70.8249 338.271 71.7126Z" fill="url(#paint2_linear_198_17546)"/>
<path d="M57.1035 71.7118C25.8853 87.4094 -5.62002 116.11 -3.30222 132.524C-2.96158 134.937 -3.22017 137.65 -4.97145 139.331L-9.68652 143.855C-11.9271 146.005 -15.434 145.614 -16.9701 142.962C-22.6405 133.174 -27.9814 121.576 -28.3133 115.845C-28.0344 90.5984 27.5813 56.1405 45.7187 47.2826C47.1189 46.5989 48.6983 46.7076 50.0129 47.4907L57.7275 52.0861C59.2169 52.9733 60.1239 54.6266 60.1118 56.4324L60.0414 66.9602C60.0279 68.9801 58.8685 70.8243 57.1035 71.7118Z" fill="url(#paint3_linear_198_17546)"/>
</g>
<defs>
<linearGradient id="paint0_linear_198_17546" x1="315.571" y1="83.9912" x2="362.563" y2="116.382" gradientUnits="userSpaceOnUse">
<stop stop-color="#E8D41A"/>
<stop offset="1" stop-color="#E8D41A" stop-opacity="0"/>
</linearGradient>
<linearGradient id="paint1_linear_198_17546" x1="79.8026" y1="83.9907" x2="32.8113" y2="116.382" gradientUnits="userSpaceOnUse">
<stop stop-color="#E8D41A"/>
<stop offset="1" stop-color="#E8D41A" stop-opacity="0"/>
</linearGradient>
<linearGradient id="paint2_linear_198_17546" x1="361.577" y1="70.6666" x2="396.453" y2="126.633" gradientUnits="userSpaceOnUse">
<stop stop-color="#E8D41A"/>
<stop offset="1" stop-color="#E8D41A" stop-opacity="0"/>
</linearGradient>
<linearGradient id="paint3_linear_198_17546" x1="33.7973" y1="70.6661" x2="-1.07912" y2="126.633" gradientUnits="userSpaceOnUse">
<stop stop-color="#E8D41A"/>
<stop offset="1" stop-color="#E8D41A" stop-opacity="0"/>
</linearGradient>
</defs>
</svg>
