<svg width="348" height="103" viewBox="0 0 348 103" fill="none" xmlns="http://www.w3.org/2000/svg">
<rect width="348" height="103" rx="5" fill="#9263D5"/>
<mask id="mask0_330_862" style="mask-type:alpha" maskUnits="userSpaceOnUse" x="0" y="0" width="348" height="103">
<rect width="348" height="103" rx="5" fill="#9263D5"/>
</mask>
<g mask="url(#mask0_330_862)">
<path d="M258.215 93.6479C284.124 95.4364 313.206 107.541 316.102 121.917C316.558 124.178 317.709 126.453 319.818 127.396L322.022 128.38C324.987 129.705 328.299 127.958 328.694 124.778C329.947 114.673 330.485 103.47 329.198 98.6791C322.262 77.9774 275.29 69.7744 259.254 68.8747C257.586 68.7811 256.071 69.6307 255.202 71.0295L251.186 77.4972C250.418 78.7331 250.247 80.2692 250.718 81.6927L253.459 89.982C254.147 92.0609 256.064 93.4994 258.215 93.6479Z" fill="url(#paint0_linear_330_862)"/>
<path d="M84.0638 93.6463C58.1573 95.4304 29.0728 107.531 26.163 121.905C25.7041 124.172 24.5545 126.453 22.4474 127.394L20.2203 128.389C17.2637 129.71 13.9634 127.959 13.5686 124.776C12.3152 114.672 11.7778 103.469 13.0644 98.6786C20.0024 77.9723 66.9932 69.7703 83.0194 68.8736C84.6809 68.7806 86.1913 69.6296 87.0596 71.0279L91.0707 77.4868C91.8418 78.7285 92.0141 80.2736 91.541 81.7039L88.8021 89.985C88.115 92.0626 86.2061 93.4988 84.0638 93.6463Z" fill="url(#paint1_linear_330_862)"/>
<path d="M293.247 71.9553C320.134 87.7036 347.116 116.192 345.123 132.522C344.825 134.965 345.13 137.738 346.777 139.564L350.131 143.281C352.32 145.708 355.708 145.46 357.09 142.692C361.948 132.962 366.489 121.524 366.774 115.846C366.534 90.7539 318.977 56.5638 302.979 47.4492C301.589 46.6571 300.047 46.7492 298.82 47.594L292.209 52.1425C290.957 53.004 290.216 54.5618 290.226 56.309L290.286 66.6609C290.299 68.8464 291.483 70.9216 293.247 71.9553Z" fill="url(#paint2_linear_330_862)"/>
<path d="M49.0653 71.9255C22.1896 87.6519 -4.79974 116.124 -2.86595 132.472C-2.57398 134.94 -2.86577 137.736 -4.50672 139.555L-7.9237 143.342C-10.0887 145.742 -13.4445 145.461 -14.8317 142.682C-19.6879 132.954 -24.2265 121.522 -24.5111 115.845C-24.271 90.7359 23.3525 56.5154 39.317 47.4296C40.6875 46.6496 42.2126 46.7467 43.4374 47.5895L50.0138 52.1149C51.2881 52.9917 52.0467 54.5859 52.0364 56.3655L51.9767 66.6764C51.9641 68.8554 50.8026 70.9089 49.0653 71.9255Z" fill="url(#paint3_linear_330_862)"/>
</g>
<defs>
<linearGradient id="paint0_linear_330_862" x1="273.18" y1="83.9912" x2="317.431" y2="110.396" gradientUnits="userSpaceOnUse">
<stop stop-color="#E8D41A"/>
<stop offset="1" stop-color="#E8D41A" stop-opacity="0"/>
</linearGradient>
<linearGradient id="paint1_linear_330_862" x1="69.0824" y1="83.9907" x2="24.8314" y2="110.395" gradientUnits="userSpaceOnUse">
<stop stop-color="#E8D41A"/>
<stop offset="1" stop-color="#E8D41A" stop-opacity="0"/>
</linearGradient>
<linearGradient id="paint2_linear_330_862" x1="313.006" y1="70.6666" x2="349.848" y2="121.846" gradientUnits="userSpaceOnUse">
<stop stop-color="#E8D41A"/>
<stop offset="1" stop-color="#E8D41A" stop-opacity="0"/>
</linearGradient>
<linearGradient id="paint3_linear_330_862" x1="29.2563" y1="70.6661" x2="-7.58569" y2="121.846" gradientUnits="userSpaceOnUse">
<stop stop-color="#E8D41A"/>
<stop offset="1" stop-color="#E8D41A" stop-opacity="0"/>
</linearGradient>
</defs>
</svg>
