<svg width="1063" height="171" viewBox="0 0 1063 171" fill="none" xmlns="http://www.w3.org/2000/svg">
<rect width="1063" height="171" rx="10" fill="#9263D5"/>
<mask id="mask0_260_3107" style="mask-type:alpha" maskUnits="userSpaceOnUse" x="0" y="0" width="1063" height="171">
<rect width="1063" height="171" rx="10" fill="#9263D5"/>
</mask>
<g mask="url(#mask0_260_3107)">
<path d="M561.707 159.095C683.515 159.45 827.838 195.537 834.379 242.016C834.932 245.948 837.179 249.724 841.012 250.769L877.845 260.815C882.384 262.053 887.115 259.094 887.901 254.418C893.4 221.688 895.35 181.902 888.335 166.106C853.526 102.215 627.634 84.0902 566.18 84.7835C563.861 84.8097 561.772 85.8717 560.249 87.6536L538.281 113.357C536.105 115.903 535.691 119.479 537.238 122.354L554.815 155.011C556.174 157.534 558.8 159.086 561.707 159.095Z" fill="url(#paint0_linear_260_3107)"/>
<path d="M716.851 87.0039C845.7 131.998 980.453 222.226 961.764 271.627C960.399 275.236 960.893 279.292 964.037 281.498L999.002 306.026C1002.78 308.678 1008.63 307.622 1011.44 303.704C1033.95 272.342 1056.5 232.036 1057.1 213.254C1052.69 135.599 823.613 34.7057 759.065 13.2339C756.806 12.4827 754.326 12.7646 752.08 13.8918L714.764 32.6125C711.701 34.1489 709.812 37.0816 709.965 40.0628L712.057 80.9633C712.198 83.7109 714.035 86.0204 716.851 87.0039Z" fill="url(#paint1_linear_260_3107)"/>
</g>
<defs>
<linearGradient id="paint0_linear_260_3107" x1="638.122" y1="128.528" x2="793.728" y2="256.178" gradientUnits="userSpaceOnUse">
<stop stop-color="#E8D41A"/>
<stop offset="1" stop-color="#E8D41A" stop-opacity="0"/>
</linearGradient>
<linearGradient id="paint1_linear_260_3107" x1="812.964" y1="83.949" x2="910.938" y2="270.89" gradientUnits="userSpaceOnUse">
<stop stop-color="#E8D41A"/>
<stop offset="1" stop-color="#E8D41A" stop-opacity="0"/>
</linearGradient>
</defs>
</svg>
