<svg width="881" height="171" viewBox="0 0 881 171" fill="none" xmlns="http://www.w3.org/2000/svg">
<rect width="881" height="171" rx="10" fill="#9263D5"/>
<mask id="mask0_330_210" style="mask-type:alpha" maskUnits="userSpaceOnUse" x="0" y="0" width="881" height="171">
<rect width="881" height="171" rx="10" fill="#9263D5"/>
</mask>
<g mask="url(#mask0_330_210)">
<path d="M520.253 152.819C611.572 153.529 718.872 186.085 724.24 227.992C724.728 231.8 726.872 235.46 730.518 236.66L754.562 244.572C759.233 246.109 764.174 243.109 764.835 238.237C768.842 208.707 770.192 173.355 764.979 159.192C738.957 101.56 571.37 84.84 523.237 85.1579C520.732 85.1744 518.439 86.4307 516.992 88.4742L500.82 111.305C499.187 113.611 498.891 116.607 500.042 119.188L512.914 148.042C514.207 150.941 517.079 152.794 520.253 152.819Z" fill="url(#paint0_linear_330_210)"/>
<path d="M636.879 87.7256C733.224 128.656 833.431 209.675 820.568 254.583C819.502 258.305 820.109 262.547 823.064 265.049L846.745 285.094C850.469 288.246 856.122 287.364 858.6 283.163C875.326 254.808 891.848 218.949 892.287 202.106C888.984 131.887 718.413 40.7927 668.435 20.4394C666.15 19.5087 663.631 19.7739 661.52 21.0516L634.282 37.539C631.785 39.0509 630.309 41.8041 630.433 44.7219L631.956 80.6438C632.088 83.7611 634.008 86.5058 636.879 87.7256Z" fill="url(#paint1_linear_330_210)"/>
</g>
<defs>
<linearGradient id="paint0_linear_330_210" x1="576.226" y1="124.988" x2="710.526" y2="216.296" gradientUnits="userSpaceOnUse">
<stop stop-color="#E8D41A"/>
<stop offset="1" stop-color="#E8D41A" stop-opacity="0"/>
</linearGradient>
<linearGradient id="paint1_linear_330_210" x1="708.122" y1="84.4112" x2="806.097" y2="239.348" gradientUnits="userSpaceOnUse">
<stop stop-color="#E8D41A"/>
<stop offset="1" stop-color="#E8D41A" stop-opacity="0"/>
</linearGradient>
</defs>
</svg>
