<svg width="458" height="95" viewBox="0 0 458 95" fill="none" xmlns="http://www.w3.org/2000/svg">
<rect y="0.739258" width="458" height="94.2605" rx="10" fill="#9263D5"/>
<mask id="mask0_198_17347" style="mask-type:alpha" maskUnits="userSpaceOnUse" x="0" y="0" width="458" height="95">
<rect y="0.739258" width="458" height="94.2605" rx="10" fill="#9263D5"/>
</mask>
<g mask="url(#mask0_198_17347)">
<path d="M274.476 81.4339C321.9 81.9779 377.262 99.8026 380.635 122.787C380.979 125.132 382.289 127.402 384.528 128.183L395.582 132.04C398.527 133.068 401.661 131.191 402.046 128.105C404.069 111.863 404.713 92.7113 402.025 84.9668C388.477 53.1511 301.663 43.7859 275.866 43.8488C274.268 43.8527 272.818 44.6745 271.933 45.9991L263.776 58.2103C262.847 59.6011 262.681 61.372 263.334 62.925L269.806 78.3098C270.598 80.1927 272.442 81.4106 274.476 81.4339Z" fill="url(#paint0_linear_198_17347)"/>
<path d="M335.427 45.5013C385.431 68.1646 437.222 112.542 431.257 137.488C430.694 139.846 431.081 142.53 432.887 144.151L444.15 154.259C446.461 156.334 449.953 155.827 451.433 153.146C460.065 137.508 468.478 118.022 468.705 108.8C466.984 69.9976 378.525 19.7164 351.856 8.08058C350.428 7.45768 348.833 7.60949 347.545 8.43607L333.804 17.2557C332.345 18.1919 331.494 19.8741 331.566 21.6782L332.333 40.8631C332.414 42.8814 333.628 44.6859 335.427 45.5013Z" fill="url(#paint1_linear_198_17347)"/>
</g>
<defs>
<linearGradient id="paint0_linear_198_17347" x1="303.163" y1="65.9712" x2="376.052" y2="112.708" gradientUnits="userSpaceOnUse">
<stop stop-color="#E8D41A"/>
<stop offset="1" stop-color="#E8D41A" stop-opacity="0"/>
</linearGradient>
<linearGradient id="paint1_linear_198_17347" x1="372.246" y1="43.4365" x2="427.962" y2="126.532" gradientUnits="userSpaceOnUse">
<stop stop-color="#E8D41A"/>
<stop offset="1" stop-color="#E8D41A" stop-opacity="0"/>
</linearGradient>
</defs>
</svg>
