<svg width="1457" height="218" viewBox="0 0 1457 218" fill="none" xmlns="http://www.w3.org/2000/svg">
<rect width="1457" height="217.352" rx="10" fill="#9263D5"/>
<mask id="mask0_265_3216" style="mask-type:alpha" maskUnits="userSpaceOnUse" x="0" y="0" width="1457" height="218">
<rect width="1457" height="217.352" rx="10" fill="#9263D5"/>
</mask>
<g mask="url(#mask0_265_3216)">
<path d="M877.768 202.218C1022.06 202.551 1193.63 249.503 1197.67 309.626C1197.93 313.536 1200.17 317.243 1203.92 318.355L1249.6 331.885C1254.2 333.247 1259.02 330.267 1259.77 325.51C1266.46 283.519 1268.97 231.553 1260.62 211.132C1219.79 129.739 954.31 106.78 883.095 107.771C880.691 107.805 878.575 108.95 877.08 110.85L849.849 145.452C847.926 147.896 847.568 151.207 848.931 153.956L870.677 197.836C872.011 200.527 874.742 202.211 877.768 202.218Z" fill="url(#paint0_linear_265_3216)"/>
<path d="M1059.21 110.319C1211.54 167.917 1371.23 284.381 1345.94 346.895C1344.48 350.495 1345.06 354.637 1348.13 356.972L1391.35 389.9C1395.11 392.764 1400.87 391.773 1403.56 387.739C1430.28 347.643 1457.43 295.276 1458.13 271.059C1452.96 172.103 1183.5 43.4576 1108.75 16.6141C1106.47 15.7959 1104.02 16.0915 1101.83 17.2858L1056.16 42.17C1053.35 43.6998 1051.65 46.5581 1051.79 49.5192L1054.35 103.834C1054.49 106.746 1056.36 109.242 1059.21 110.319Z" fill="url(#paint1_linear_265_3216)"/>
</g>
<defs>
<linearGradient id="paint0_linear_265_3216" x1="967.777" y1="163.368" x2="1161.77" y2="309.899" gradientUnits="userSpaceOnUse">
<stop stop-color="#E8D41A"/>
<stop offset="1" stop-color="#E8D41A" stop-opacity="0"/>
</linearGradient>
<linearGradient id="paint1_linear_265_3216" x1="1172.41" y1="106.705" x2="1302.61" y2="335.471" gradientUnits="userSpaceOnUse">
<stop stop-color="#E8D41A"/>
<stop offset="1" stop-color="#E8D41A" stop-opacity="0"/>
</linearGradient>
</defs>
</svg>
