<svg width="567" height="95" viewBox="0 0 567 95" fill="none" xmlns="http://www.w3.org/2000/svg">
<rect width="566.905" height="94.2605" rx="10" fill="#9263D5"/>
<mask id="mask0_265_3196" style="mask-type:alpha" maskUnits="userSpaceOnUse" x="0" y="0" width="567" height="95">
<rect width="566.905" height="94.2605" rx="10" fill="#9263D5"/>
</mask>
<g mask="url(#mask0_265_3196)">
<path d="M301.853 87.7137C363.794 88.3362 435.657 106.571 444.25 130.458C445.582 134.16 447.769 138.021 451.57 139.093L464.133 142.634C468.696 143.921 473.464 140.948 474.137 136.227C476.584 119.063 477.223 99.6337 473.756 91.5637C455.515 56.957 338.88 46.7089 303.736 46.7256C301.384 46.7267 299.192 47.8267 297.679 49.6563L288.565 60.6795C286.492 63.1859 286.101 66.6534 287.573 69.4793L294.87 83.4926C296.219 86.0835 298.899 87.684 301.853 87.7137Z" fill="url(#paint0_linear_265_3196)"/>
<path d="M384.467 48.7478C450.152 72.9306 517.896 119.405 513.661 146.84C513.084 150.579 513.511 154.721 516.624 156.978L529.471 166.294C533.244 169.03 539.063 167.995 541.746 163.99C552.928 147.291 563.465 127.235 563.76 117.553C561.447 75.4327 443.124 20.9093 406.538 7.89761C404.283 7.09559 401.695 7.34585 399.47 8.50003L383.364 16.8516C380.404 18.3862 378.593 21.2901 378.741 24.2648L379.644 42.5125C379.783 45.3258 381.646 47.7094 384.467 48.7478Z" fill="url(#paint1_linear_265_3196)"/>
</g>
<defs>
<linearGradient id="paint0_linear_265_3196" x1="340.316" y1="70.8496" x2="425.494" y2="138.452" gradientUnits="userSpaceOnUse">
<stop stop-color="#E8D41A"/>
<stop offset="1" stop-color="#E8D41A" stop-opacity="0"/>
</linearGradient>
<linearGradient id="paint1_linear_265_3196" x1="433.563" y1="46.2759" x2="488.574" y2="147.828" gradientUnits="userSpaceOnUse">
<stop stop-color="#E8D41A"/>
<stop offset="1" stop-color="#E8D41A" stop-opacity="0"/>
</linearGradient>
</defs>
</svg>
