<svg width="1226" height="218" viewBox="0 0 1226 218" fill="none" xmlns="http://www.w3.org/2000/svg">
<rect width="1226" height="217.352" rx="10" fill="#9263D5"/>
<mask id="mask0_330_757" style="mask-type:alpha" maskUnits="userSpaceOnUse" x="0" y="0" width="1226" height="218">
<rect width="1226" height="217.352" rx="10" fill="#9263D5"/>
</mask>
<g mask="url(#mask0_330_757)">
<path d="M717.503 197.576C847.943 197.989 1002.7 240.925 1007.28 295.977C1007.6 299.871 1009.82 303.573 1013.56 304.697L1053.61 316.735C1058.22 318.12 1063.06 315.139 1063.8 310.365C1069.78 271.829 1071.97 224.468 1064.44 205.783C1027.46 130.976 787.417 109.769 722.225 110.593C719.807 110.624 717.662 111.785 716.172 113.705L691.886 145.021C690.005 147.447 689.657 150.712 690.988 153.439L710.377 193.139C711.706 195.859 714.457 197.566 717.503 197.576Z" fill="url(#paint0_linear_330_757)"/>
<path d="M882.104 113.113C1019.82 166.061 1163.97 272.68 1142.07 330.307C1140.69 333.932 1141.27 338.088 1144.32 340.446L1182.43 369.906C1186.18 372.809 1191.94 371.832 1194.59 367.773C1218.7 330.934 1243.05 283.142 1243.69 260.971C1239 169.994 995.271 51.7665 926.963 26.7759C924.683 25.9418 922.221 26.2327 920.04 27.4387L879.244 49.9944C876.48 51.5223 874.815 54.3665 874.952 57.3227L877.237 106.546C877.373 109.487 879.253 112.017 882.104 113.113Z" fill="url(#paint1_linear_330_757)"/>
</g>
<defs>
<linearGradient id="paint0_linear_330_757" x1="798.691" y1="161.797" x2="976.604" y2="294.23" gradientUnits="userSpaceOnUse">
<stop stop-color="#E8D41A"/>
<stop offset="1" stop-color="#E8D41A" stop-opacity="0"/>
</linearGradient>
<linearGradient id="paint1_linear_330_757" x1="984.392" y1="109.616" x2="1105.19" y2="318.765" gradientUnits="userSpaceOnUse">
<stop stop-color="#E8D41A"/>
<stop offset="1" stop-color="#E8D41A" stop-opacity="0"/>
</linearGradient>
</defs>
</svg>
