<svg width="307" height="54" viewBox="0 0 307 54" fill="none" xmlns="http://www.w3.org/2000/svg">
<rect width="306.326" height="53.2605" rx="5" fill="#9263D5"/>
<mask id="mask0_265_3231" style="mask-type:alpha" maskUnits="userSpaceOnUse" x="0" y="0" width="307" height="54">
<rect width="306.326" height="53.2605" rx="5" fill="#9263D5"/>
</mask>
<g mask="url(#mask0_265_3231)">
<path d="M163.59 49.5666C196.657 50.0082 234.756 60.1023 239.92 73.3615C240.806 75.6369 242.156 78.0472 244.505 78.7396L250.007 80.3613C252.879 81.2078 255.888 79.3432 256.28 76.3624C257.534 66.8177 257.827 56.2007 255.992 51.7362C246.196 32.3015 183.879 26.4628 164.475 26.4016C162.976 26.3969 161.596 27.1132 160.66 28.2964L156.061 34.1129C154.85 35.6446 154.624 37.723 155.482 39.4462L159.155 46.8218C159.99 48.4974 161.703 49.5414 163.59 49.5666Z" fill="url(#paint0_linear_265_3231)"/>
<path d="M208.158 27.7029C243.21 41.2903 279.196 67.069 277.607 82.5593C277.364 84.923 277.643 87.5502 279.562 89.0048L285.5 93.5076C287.851 95.29 291.46 94.6668 293.078 92.1149C298.99 82.7921 304.47 71.7867 304.627 66.421C303.383 42.74 240.075 12.1202 219.97 4.57336C218.557 4.04286 216.955 4.20472 215.583 4.9487L207.409 9.38086C205.645 10.3373 204.577 12.1266 204.664 13.9782L205.122 23.6494C205.208 25.463 206.387 27.0165 208.158 27.7029Z" fill="url(#paint1_linear_265_3231)"/>
</g>
<defs>
<linearGradient id="paint0_linear_265_3231" x1="183.888" y1="40.0321" x2="231.486" y2="76.1584" gradientUnits="userSpaceOnUse">
<stop stop-color="#E8D41A"/>
<stop offset="1" stop-color="#E8D41A" stop-opacity="0"/>
</linearGradient>
<linearGradient id="paint1_linear_265_3231" x1="234.275" y1="26.1471" x2="266.103" y2="82.3361" gradientUnits="userSpaceOnUse">
<stop stop-color="#E8D41A"/>
<stop offset="1" stop-color="#E8D41A" stop-opacity="0"/>
</linearGradient>
</defs>
</svg>
