<svg width="1268" height="91" viewBox="0 0 1268 91" fill="none" xmlns="http://www.w3.org/2000/svg">
<path d="M33.3 2.5C36.4533 2.5 39.4233 2.90333 42.21 3.70999C45.07 4.44333 47.5267 5.61666 49.58 7.22999C51.7067 8.84333 53.3567 10.8967 54.53 13.39C55.7767 15.8833 56.4 18.8533 56.4 22.3C56.4 25.7467 55.7767 28.7167 54.53 31.21C53.3567 33.7033 51.7067 35.7567 49.58 37.37C47.5267 38.9833 45.07 40.1933 42.21 41C39.4233 41.7333 36.4533 42.1 33.3 42.1H10.2V74H0.85V2.5H33.3ZM10.2 34.95H32.75C36.6367 34.95 39.9 33.96 42.54 31.98C45.18 29.9267 46.5 26.7 46.5 22.3C46.5 17.9 45.18 14.71 42.54 12.73C39.9 10.6767 36.6367 9.65 32.75 9.65H10.2V34.95ZM76.1828 2.5H87.1828L114.683 74H104.783L97.6328 54.75H65.7328L58.5828 74H48.6828L76.1828 2.5ZM68.3728 47.6H94.9928L81.6828 11.74L68.3728 47.6ZM116.909 90.5V66.85H119.109C121.015 66.85 122.812 65.97 124.499 64.21C126.259 62.3767 127.799 59.5533 129.119 55.74C130.439 51.9267 131.465 47.05 132.199 41.11C133.005 35.0967 133.409 27.91 133.409 19.55V2.5H179.609V66.85H189.509V90.5H180.159V74H126.259V90.5H116.909ZM131.759 66.85H170.259V9.65H142.209V20.65C142.209 33.5567 141.292 43.86 139.459 51.56C137.625 59.26 135.059 64.3567 131.759 66.85ZM203.774 2.5V33.85H224.674C227.828 33.85 230.761 34.2167 233.474 34.95C236.261 35.6833 238.644 36.8567 240.624 38.47C242.678 40.01 244.291 42.0267 245.464 44.52C246.638 47.0133 247.224 50.0567 247.224 53.65C247.224 57.2433 246.638 60.3233 245.464 62.89C244.291 65.4567 242.678 67.5833 240.624 69.27C238.644 70.8833 236.261 72.0933 233.474 72.9C230.761 73.6333 227.828 74 224.674 74H194.424V2.5H203.774ZM203.774 41V66.85H224.124C228.011 66.85 231.164 65.75 233.584 63.55C236.078 61.35 237.324 58.05 237.324 53.65C237.324 49.47 236.078 46.3167 233.584 44.19C231.164 42.0633 228.011 41 224.124 41H203.774ZM253.824 2.5H263.174V74H253.824V2.5ZM292.93 74V2.5H325.38C328.68 2.5 331.687 2.83 334.4 3.49C337.187 4.15 339.57 5.21333 341.55 6.67999C343.603 8.07333 345.18 9.94333 346.28 12.29C347.38 14.5633 347.93 17.35 347.93 20.65C347.93 23.95 347.307 26.6267 346.06 28.68C344.813 30.7333 343.42 32.3467 341.88 33.52C340.12 34.9133 338.103 35.94 335.83 36.6V37.15C338.47 37.81 340.853 38.8733 342.98 40.34C344.813 41.5867 346.463 43.31 347.93 45.51C349.397 47.71 350.13 50.6067 350.13 54.2C350.13 57.7933 349.543 60.8367 348.37 63.33C347.197 65.8233 345.51 67.8767 343.31 69.49C341.183 71.03 338.58 72.1667 335.5 72.9C332.493 73.6333 329.12 74 325.38 74H292.93ZM302.28 41V66.85H325.38C329.78 66.85 333.337 65.86 336.05 63.88C338.837 61.8267 340.23 58.6 340.23 54.2C340.23 49.8 338.8 46.5 335.94 44.3C333.08 42.1 329.56 41 325.38 41H302.28ZM325.38 33.85C329.267 33.85 332.42 32.86 334.84 30.88C337.333 28.8267 338.58 25.6 338.58 21.2C338.58 17.02 337.333 14.05 334.84 12.29C332.42 10.53 329.267 9.65 325.38 9.65H302.28V33.85H325.38ZM354.027 38.25C354.027 32.8967 354.761 27.9467 356.227 23.4C357.767 18.78 359.967 14.82 362.827 11.52C365.761 8.14666 369.391 5.54333 373.717 3.70999C378.044 1.80333 383.031 0.849998 388.677 0.849998C394.324 0.849998 399.311 1.80333 403.637 3.70999C407.964 5.54333 411.557 8.14666 414.417 11.52C417.351 14.82 419.551 18.78 421.017 23.4C422.557 27.9467 423.327 32.8967 423.327 38.25C423.327 43.6033 422.557 48.59 421.017 53.21C419.551 57.7567 417.351 61.7167 414.417 65.09C411.557 68.39 407.964 70.9933 403.637 72.9C399.311 74.7333 394.324 75.65 388.677 75.65C383.031 75.65 378.044 74.7333 373.717 72.9C369.391 70.9933 365.761 68.39 362.827 65.09C359.967 61.7167 357.767 57.7567 356.227 53.21C354.761 48.59 354.027 43.6033 354.027 38.25ZM363.927 38.25C363.927 43.4567 364.551 48.0033 365.797 51.89C367.117 55.7767 368.877 59.0033 371.077 61.57C373.351 64.0633 375.991 65.9333 378.997 67.18C382.004 68.4267 385.231 69.05 388.677 69.05C392.124 69.05 395.351 68.4267 398.357 67.18C401.364 65.9333 403.967 64.0633 406.167 61.57C408.441 59.0033 410.201 55.7767 411.447 51.89C412.767 48.0033 413.427 43.4567 413.427 38.25C413.427 33.0433 412.767 28.4967 411.447 24.61C410.201 20.7233 408.441 17.5333 406.167 15.04C403.967 12.4733 401.364 10.5667 398.357 9.32C395.351 8.07333 392.124 7.45 388.677 7.45C385.231 7.45 382.004 8.07333 378.997 9.32C375.991 10.5667 373.351 12.4733 371.077 15.04C368.877 17.5333 367.117 20.7233 365.797 24.61C364.551 28.4967 363.927 33.0433 363.927 38.25ZM427.693 52.55H437.043C437.043 57.5367 438.656 61.5333 441.883 64.54C445.11 67.5467 449.913 69.05 456.293 69.05C462.893 69.05 467.733 67.62 470.813 64.76C473.966 61.8267 475.543 58.3067 475.543 54.2C475.543 51.56 475.066 49.3967 474.113 47.71C473.16 46.0233 471.84 44.7033 470.153 43.75C468.54 42.7233 466.633 42.0267 464.433 41.66C462.233 41.22 459.886 41 457.393 41H445.293V33.85H457.393C462.673 33.85 466.743 32.6033 469.603 30.11C472.463 27.6167 473.893 24.28 473.893 20.1C473.893 18.56 473.6 17.0567 473.013 15.59C472.426 14.05 471.436 12.6933 470.043 11.52C468.65 10.2733 466.816 9.28333 464.543 8.55C462.343 7.81666 459.593 7.45 456.293 7.45C452.7 7.45 449.73 7.92666 447.383 8.88C445.11 9.76 443.276 10.9333 441.883 12.4C440.49 13.8667 439.5 15.48 438.913 17.24C438.4 18.9267 438.143 20.6133 438.143 22.3H428.793C428.793 19.8067 429.306 17.3133 430.333 14.82C431.36 12.2533 432.973 9.94333 435.173 7.89C437.373 5.83667 440.196 4.15 443.643 2.83C447.163 1.51 451.38 0.849998 456.293 0.849998C461.28 0.849998 465.46 1.43666 468.833 2.60999C472.28 3.71 475.066 5.17667 477.193 7.01C479.32 8.77 480.86 10.8233 481.813 13.17C482.766 15.4433 483.243 17.7533 483.243 20.1C483.243 23.6933 482.51 26.5533 481.043 28.68C479.65 30.8067 478.11 32.4933 476.423 33.74C474.37 35.06 472.06 36.0133 469.493 36.6V37.15C472.5 37.5167 475.176 38.36 477.523 39.68C479.503 40.8533 481.3 42.5767 482.913 44.85C484.6 47.05 485.443 50.1667 485.443 54.2C485.443 57.3533 484.746 60.25 483.353 62.89C481.96 65.53 479.98 67.8033 477.413 69.71C474.92 71.5433 471.876 72.9733 468.283 74C464.69 75.1 460.693 75.65 456.293 75.65C447.126 75.65 440.05 73.5967 435.063 69.49C430.15 65.3833 427.693 59.7367 427.693 52.55ZM491.446 74V2.5H523.896C527.196 2.5 530.202 2.83 532.916 3.49C535.702 4.15 538.086 5.21333 540.066 6.67999C542.119 8.07333 543.696 9.94333 544.796 12.29C545.896 14.5633 546.446 17.35 546.446 20.65C546.446 23.95 545.822 26.6267 544.576 28.68C543.329 30.7333 541.936 32.3467 540.396 33.52C538.636 34.9133 536.619 35.94 534.346 36.6V37.15C536.986 37.81 539.369 38.8733 541.496 40.34C543.329 41.5867 544.979 43.31 546.446 45.51C547.912 47.71 548.646 50.6067 548.646 54.2C548.646 57.7933 548.059 60.8367 546.886 63.33C545.712 65.8233 544.026 67.8767 541.826 69.49C539.699 71.03 537.096 72.1667 534.016 72.9C531.009 73.6333 527.636 74 523.896 74H491.446ZM500.796 41V66.85H523.896C528.296 66.85 531.852 65.86 534.566 63.88C537.352 61.8267 538.746 58.6 538.746 54.2C538.746 49.8 537.316 46.5 534.456 44.3C531.596 42.1 528.076 41 523.896 41H500.796ZM523.896 33.85C527.782 33.85 530.936 32.86 533.356 30.88C535.849 28.8267 537.096 25.6 537.096 21.2C537.096 17.02 535.849 14.05 533.356 12.29C530.936 10.53 527.782 9.65 523.896 9.65H500.796V33.85H523.896ZM587.167 2.5C590.321 2.5 593.291 2.90333 596.077 3.70999C598.937 4.44333 601.394 5.61666 603.447 7.22999C605.574 8.84333 607.224 10.8967 608.397 13.39C609.644 15.8833 610.267 18.8533 610.267 22.3C610.267 25.7467 609.644 28.7167 608.397 31.21C607.224 33.7033 605.574 35.7567 603.447 37.37C601.394 38.9833 598.937 40.1933 596.077 41C593.291 41.7333 590.321 42.1 587.167 42.1H564.067V74H554.717V2.5H587.167ZM564.067 34.95H586.617C590.504 34.95 593.767 33.96 596.407 31.98C599.047 29.9267 600.367 26.7 600.367 22.3C600.367 17.9 599.047 14.71 596.407 12.73C593.767 10.6767 590.504 9.65 586.617 9.65H564.067V34.95ZM630.05 2.5H641.05L668.55 74H658.65L651.5 54.75H619.6L612.45 74H602.55L630.05 2.5ZM622.24 47.6H648.86L635.55 11.74L622.24 47.6ZM682.339 2.5V66.85H709.069V2.5H718.309V66.85H745.039V2.5H754.389V66.85H764.289V90.5H754.939V74H672.989V2.5H682.339ZM793.976 2.5H804.976L832.476 74H822.576L815.426 54.75H783.526L776.376 74H766.476L793.976 2.5ZM786.166 47.6H812.786L799.476 11.74L786.166 47.6ZM881.452 2.5V9.65H856.152V74H846.802V9.65H821.502V2.5H881.452ZM896.323 2.5V33.85H919.973C923.126 33.85 926.06 34.2167 928.773 34.95C931.56 35.6833 933.943 36.8567 935.923 38.47C937.976 40.01 939.59 42.0267 940.763 44.52C941.936 47.0133 942.523 50.0567 942.523 53.65C942.523 57.2433 941.936 60.3233 940.763 62.89C939.59 65.4567 937.976 67.5833 935.923 69.27C933.943 70.8833 931.56 72.0933 928.773 72.9C926.06 73.6333 923.126 74 919.973 74H886.973V2.5H896.323ZM896.323 66.85H919.423C923.31 66.85 926.463 65.75 928.883 63.55C931.376 61.35 932.623 58.05 932.623 53.65C932.623 49.47 931.376 46.3167 928.883 44.19C926.463 42.0633 923.31 41 919.423 41H896.323V66.85ZM981.07 0.849998C986.717 0.849998 991.447 1.62 995.26 3.15999C999.074 4.62666 1002.15 6.57 1004.5 8.99C1006.85 11.41 1008.57 14.1233 1009.67 17.13C1010.84 20.1367 1011.58 23.1433 1011.87 26.15H1002.52C1001.93 20.0633 999.734 15.4433 995.92 12.29C992.107 9.06333 987.157 7.45 981.07 7.45C974.177 7.45 968.604 10.0167 964.35 15.15C960.097 20.2833 957.97 27.9833 957.97 38.25C957.97 48.5167 960.097 56.2167 964.35 61.35C968.604 66.4833 974.177 69.05 981.07 69.05C987.157 69.05 992.107 67.4733 995.92 64.32C999.734 61.0933 1001.93 56.4367 1002.52 50.35H1011.87C1011.58 53.3567 1010.84 56.3633 1009.67 59.37C1008.57 62.3767 1006.85 65.09 1004.5 67.51C1002.15 69.93 999.074 71.91 995.26 73.45C991.447 74.9167 986.717 75.65 981.07 75.65C975.57 75.65 970.767 74.7333 966.66 72.9C962.554 71.0667 959.107 68.5 956.32 65.2C953.607 61.9 951.554 57.9767 950.16 53.43C948.767 48.81 948.07 43.75 948.07 38.25C948.07 32.75 948.767 27.7267 950.16 23.18C951.554 18.56 953.607 14.6 956.32 11.3C959.107 8 962.554 5.43333 966.66 3.6C970.767 1.76666 975.57 0.849998 981.07 0.849998ZM1036.39 41.88C1031.03 41.2933 1026.6 39.4967 1023.08 36.49C1019.63 33.41 1017.91 28.68 1017.91 22.3C1017.91 18.7067 1018.53 15.6633 1019.78 13.17C1021.1 10.6767 1022.78 8.66 1024.84 7.12C1026.96 5.50666 1029.38 4.33333 1032.1 3.6C1034.81 2.86666 1037.6 2.5 1040.46 2.5H1074.56V74H1065.21V42.1H1046.18L1026.16 74H1015.71L1036.39 41.88ZM1027.81 22.3C1027.81 26.7 1029.02 29.9267 1031.44 31.98C1033.93 33.96 1037.12 34.95 1041.01 34.95H1065.21V9.65H1041.01C1037.12 9.65 1033.93 10.6767 1031.44 12.73C1029.02 14.71 1027.81 17.9 1027.81 22.3ZM1101.54 90.5V66.85H1103.74C1105.64 66.85 1107.44 65.97 1109.13 64.21C1110.89 62.3767 1112.43 59.5533 1113.75 55.74C1115.07 51.9267 1116.09 47.05 1116.83 41.11C1117.63 35.0967 1118.04 27.91 1118.04 19.55V2.5H1164.24V66.85H1174.14V90.5H1164.79V74H1110.89V90.5H1101.54ZM1116.39 66.85H1154.89V9.65H1126.84V20.65C1126.84 33.5567 1125.92 43.86 1124.09 51.56C1122.25 59.26 1119.69 64.3567 1116.39 66.85ZM1176.83 74V66.19C1177.05 66.2633 1177.3 66.3 1177.6 66.3C1178.18 66.4467 1178.84 66.52 1179.58 66.52C1181.48 66.52 1183.28 66.0433 1184.97 65.09C1186.65 64.1367 1188.12 62.1933 1189.37 59.26C1190.61 56.2533 1191.57 52.0367 1192.23 46.61C1192.96 41.1833 1193.33 33.9967 1193.33 25.05V2.5H1240.08V74H1230.73V9.65H1202.13V26.15C1202.13 35.2433 1201.69 42.87 1200.81 49.03C1200 55.19 1198.75 60.1767 1197.07 63.99C1195.38 67.73 1193.25 70.4433 1190.69 72.13C1188.19 73.7433 1185.22 74.55 1181.78 74.55C1181.12 74.55 1180.46 74.5133 1179.8 74.44C1179.21 74.44 1178.7 74.4033 1178.26 74.33C1177.74 74.1833 1177.27 74.0733 1176.83 74ZM1265.73 41.88C1260.38 41.2933 1255.94 39.4967 1252.42 36.49C1248.98 33.41 1247.25 28.68 1247.25 22.3C1247.25 18.7067 1247.88 15.6633 1249.12 13.17C1250.44 10.6767 1252.13 8.66 1254.18 7.12C1256.31 5.50666 1258.73 4.33333 1261.44 3.6C1264.16 2.86666 1266.94 2.5 1269.8 2.5H1303.9V74H1294.55V42.1H1275.52L1255.5 74H1245.05L1265.73 41.88ZM1257.15 22.3C1257.15 26.7 1258.36 29.9267 1260.78 31.98C1263.28 33.96 1266.47 34.95 1270.35 34.95H1294.55V9.65H1270.35C1266.47 9.65 1263.28 10.6767 1260.78 12.73C1258.36 14.71 1257.15 17.9 1257.15 22.3ZM1333.63 74V2.5H1366.08C1369.38 2.5 1372.39 2.83 1375.1 3.49C1377.89 4.15 1380.27 5.21333 1382.25 6.67999C1384.31 8.07333 1385.88 9.94333 1386.98 12.29C1388.08 14.5633 1388.63 17.35 1388.63 20.65C1388.63 23.95 1388.01 26.6267 1386.76 28.68C1385.52 30.7333 1384.12 32.3467 1382.58 33.52C1380.82 34.9133 1378.81 35.94 1376.53 36.6V37.15C1379.17 37.81 1381.56 38.8733 1383.68 40.34C1385.52 41.5867 1387.17 43.31 1388.63 45.51C1390.1 47.71 1390.83 50.6067 1390.83 54.2C1390.83 57.7933 1390.25 60.8367 1389.07 63.33C1387.9 65.8233 1386.21 67.8767 1384.01 69.49C1381.89 71.03 1379.28 72.1667 1376.2 72.9C1373.2 73.6333 1369.82 74 1366.08 74H1333.63ZM1342.98 41V66.85H1366.08C1370.48 66.85 1374.04 65.86 1376.75 63.88C1379.54 61.8267 1380.93 58.6 1380.93 54.2C1380.93 49.8 1379.5 46.5 1376.64 44.3C1373.78 42.1 1370.26 41 1366.08 41H1342.98ZM1366.08 33.85C1369.97 33.85 1373.12 32.86 1375.54 30.88C1378.04 28.8267 1379.28 25.6 1379.28 21.2C1379.28 17.02 1378.04 14.05 1375.54 12.29C1373.12 10.53 1369.97 9.65 1366.08 9.65H1342.98V33.85H1366.08ZM1419.49 2.5H1430.49L1457.99 74H1448.09L1440.94 54.75H1409.04L1401.89 74H1391.99L1419.49 2.5ZM1411.68 47.6H1438.3L1424.99 11.74L1411.68 47.6ZM1489.39 0.849998C1495.04 0.849998 1499.77 1.62 1503.58 3.15999C1507.39 4.62666 1510.47 6.57 1512.82 8.99C1515.17 11.41 1516.89 14.1233 1517.99 17.13C1519.16 20.1367 1519.9 23.1433 1520.19 26.15H1510.84C1510.25 20.0633 1508.05 15.4433 1504.24 12.29C1500.43 9.06333 1495.48 7.45 1489.39 7.45C1482.5 7.45 1476.92 10.0167 1472.67 15.15C1468.42 20.2833 1466.29 27.9833 1466.29 38.25C1466.29 48.5167 1468.42 56.2167 1472.67 61.35C1476.92 66.4833 1482.5 69.05 1489.39 69.05C1495.48 69.05 1500.43 67.4733 1504.24 64.32C1508.05 61.0933 1510.25 56.4367 1510.84 50.35H1520.19C1519.9 53.3567 1519.16 56.3633 1517.99 59.37C1516.89 62.3767 1515.17 65.09 1512.82 67.51C1510.47 69.93 1507.39 71.91 1503.58 73.45C1499.77 74.9167 1495.04 75.65 1489.39 75.65C1483.89 75.65 1479.09 74.7333 1474.98 72.9C1470.87 71.0667 1467.43 68.5 1464.64 65.2C1461.93 61.9 1459.87 57.9767 1458.48 53.43C1457.09 48.81 1456.39 43.75 1456.39 38.25C1456.39 32.75 1457.09 27.7267 1458.48 23.18C1459.87 18.56 1461.93 14.6 1464.64 11.3C1467.43 8 1470.87 5.43333 1474.98 3.6C1479.09 1.76666 1483.89 0.849998 1489.39 0.849998Z" fill="url(#paint0_linear_171_1969)"/>
<defs>
<linearGradient id="paint0_linear_171_1969" x1="-3" y1="29.5001" x2="1391.12" y2="29.5004" gradientUnits="userSpaceOnUse">
<stop stop-color="#33A4CB"/>
<stop offset="1" stop-color="#33A4CB" stop-opacity="0"/>
</linearGradient>
</defs>
</svg>
