<svg width="485" height="549" viewBox="0 0 485 549" fill="none" xmlns="http://www.w3.org/2000/svg">
<path d="M336.854 3.43991C209.789 144.013 285.672 262.873 340 305C185.436 195.154 220.759 57.0807 258.212 0.859253C258.58 0.306763 259.186 0 259.85 0H335.425C337.169 0 338.024 2.14566 336.854 3.43991Z" fill="url(#paint0_linear_256_2955)"/>
<path d="M197.667 2.75504C148.084 138.194 238.697 242.159 303.883 287.482C305.879 288.869 304.13 292.175 301.895 291.22C151.803 227.099 127.743 74.4412 135.197 1.73465C135.301 0.721069 136.153 0 137.172 0H195.797C197.196 0 198.148 1.44098 197.667 2.75504Z" fill="url(#paint1_linear_256_2955)"/>
<path d="M35.0317 0H85.4222C86.5713 0 87.4819 0.994629 87.425 2.1423C78.6011 180.147 233.254 277.509 312 304C93.6142 252.565 35.2084 82.5438 33.0422 1.97934C33.0122 0.862885 33.9148 0 35.0317 0Z" fill="url(#paint2_linear_256_2955)"/>
<path d="M0 102.701V166.581C0 167.08 0.189943 167.565 0.527759 167.933C107.036 283.949 261.824 311.652 326 310.988C139.133 289.265 36.5039 167.63 4.04577 101.747C3.08544 99.7981 0 100.528 0 102.701Z" fill="url(#paint3_linear_256_2955)"/>
<path d="M3.41732 217.235C84.5509 292.346 236.241 315.858 322.795 319.349C325.264 319.448 325.432 323.025 322.974 323.284C176.666 338.728 49.2746 284.646 0.876322 253.427C0.308379 253.061 0 252.451 0 251.775V218.72C0 216.954 2.1212 216.035 3.41732 217.235Z" fill="url(#paint4_linear_256_2955)"/>
<path d="M0 284.303V311.36C0 312.161 0.478517 312.886 1.2166 313.198C135.314 369.88 298.45 353.969 366.263 338.351C367.622 338.038 368.171 336.475 367.393 335.318L363.575 329.639C363.138 328.989 362.354 328.655 361.581 328.782C199.94 355.254 57.2142 309.884 2.88041 282.479C1.53868 281.802 0 282.8 0 284.303Z" fill="url(#paint5_linear_256_2955)"/>
<path d="M0 343.656V373.417C0 374.364 0.674516 375.184 1.60225 375.375C174.653 411.057 322.682 377.483 377.692 355.323C378.899 354.837 379.247 353.366 378.47 352.323L370.918 342.181C370.395 341.479 369.478 341.198 368.651 341.486C237.405 387.135 71.7162 361.112 2.49055 341.707C1.20966 341.348 0 342.326 0 343.656Z" fill="url(#paint6_linear_256_2955)"/>
<path d="M0 403.269V430.916C0 431.857 0.65602 432.672 1.57662 432.868C152.783 465.046 322.733 413.017 391.058 382.048C392.132 381.561 392.488 380.279 391.895 379.259L385.093 367.55C384.58 366.668 383.492 366.311 382.557 366.72C254.475 422.717 77.4024 413.325 2.26302 401.279C1.04359 401.083 0 402.034 0 403.269Z" fill="url(#paint7_linear_256_2955)"/>
<path d="M0 462.555V493.628C0 494.665 0.800418 495.532 1.83423 495.618C182.662 510.824 345.014 449.539 405.445 416.057C406.355 415.553 406.666 414.461 406.231 413.515L399.047 397.865C398.578 396.843 397.358 396.409 396.346 396.9C250.979 467.465 74.6843 468.881 2.17498 460.555C0.982967 460.418 0 461.355 0 462.555Z" fill="url(#paint8_linear_256_2955)"/>
<path d="M0 525.196V547C0 548.105 0.852377 549 1.95695 549H214.86C251.162 549 360.013 496.873 410.955 470.275C411.615 469.93 412 469.262 412 468.518V441.525C412 439.972 410.351 438.981 409.005 439.757C310.044 496.775 98.1847 519.059 1.86116 523.198C0.789595 523.245 0 524.124 0 525.196Z" fill="url(#paint9_linear_256_2955)"/>
<path d="M406.429 505.985L408.539 545.898C408.6 547.042 407.688 548.003 406.542 548.003H316.035H292.577C328.323 543.309 384.932 516.973 403.013 504.386C404.37 503.441 406.342 504.334 406.429 505.985Z" fill="url(#paint10_linear_256_2955)"/>
<path d="M482.468 525.892C450.213 523.505 423.497 537.854 411.575 546.31C410.31 547.208 408.512 546.45 408.315 544.911L403.71 508.935C403.685 508.74 403.688 508.54 403.724 508.346C408.581 481.684 458.139 470.506 482.389 466.822C483.592 466.639 484.669 467.574 484.669 468.791V523.876C484.669 525.057 483.646 525.979 482.468 525.892Z" fill="url(#paint11_linear_256_2955)"/>
<path d="M482.638 302.429C431.265 320.656 411.739 376.491 407.525 408.357C407.255 410.4 404.344 410.908 403.452 409.051L397.984 397.663C397.94 397.571 397.902 397.473 397.872 397.376C376.093 325.172 442.463 265.025 481.059 242.171C482.376 241.391 484.005 242.361 484.005 243.891V300.52C484.005 301.378 483.446 302.142 482.638 302.429Z" fill="url(#paint12_linear_256_2955)"/>
<path d="M482.518 414.572C453.884 422.722 427.976 448.556 415.869 464.549C414.665 466.138 411.97 465.288 411.97 463.295V438.482C408.564 407.572 455.407 373.57 481.07 358.907C482.39 358.152 484.005 359.121 484.005 360.641L484.005 412.622C484.005 413.532 483.393 414.323 482.518 414.572Z" fill="url(#paint13_linear_256_2955)"/>
<path d="M483.862 177.945C394.552 222.124 378.334 306.86 381.754 351.236C381.926 353.474 378.539 354.613 377.412 352.672L365.512 332.169C365.429 332.024 365.362 331.865 365.316 331.704C330.931 209.532 427.48 133.799 482.374 112.787C483.668 112.292 485 113.272 485 114.657V176.136C485 176.901 484.547 177.606 483.862 177.945Z" fill="url(#paint14_linear_256_2955)"/>
<path d="M481.515 51.0028C319.823 107.248 328.66 239.539 356.495 308.413C357.34 310.505 354.542 312.232 353.031 310.556C239.142 184.277 353.504 52.0348 427.18 0.351654C427.515 0.116455 427.902 -9.15527e-05 428.311 -9.15527e-05H480.898C482.002 -9.15527e-05 482.898 0.895325 482.898 1.99991V49.0969C482.898 49.9513 482.322 50.7221 481.515 51.0028Z" fill="url(#paint15_linear_256_2955)"/>
<defs>
<linearGradient id="paint0_linear_256_2955" x1="283" y1="305" x2="283" y2="0" gradientUnits="userSpaceOnUse">
<stop stop-color="#FBB404"/>
<stop offset="1" stop-color="#F16A28"/>
</linearGradient>
<linearGradient id="paint1_linear_256_2955" x1="228" y1="299" x2="228" y2="0" gradientUnits="userSpaceOnUse">
<stop stop-color="#FBB404"/>
<stop offset="1" stop-color="#F16A28"/>
</linearGradient>
<linearGradient id="paint2_linear_256_2955" x1="172.5" y1="304" x2="172.5" y2="0" gradientUnits="userSpaceOnUse">
<stop stop-color="#FBB404"/>
<stop offset="1" stop-color="#F16A28"/>
</linearGradient>
<linearGradient id="paint3_linear_256_2955" x1="163" y1="311" x2="163" y2="93" gradientUnits="userSpaceOnUse">
<stop stop-color="#FBB404"/>
<stop offset="1" stop-color="#F16A28"/>
</linearGradient>
<linearGradient id="paint4_linear_256_2955" x1="174.5" y1="326" x2="174.5" y2="214" gradientUnits="userSpaceOnUse">
<stop stop-color="#FBB404"/>
<stop offset="1" stop-color="#F16A28"/>
</linearGradient>
<linearGradient id="paint5_linear_256_2955" x1="184.5" y1="353" x2="184.5" y2="281" gradientUnits="userSpaceOnUse">
<stop stop-color="#FBB404"/>
<stop offset="1" stop-color="#F16A28"/>
</linearGradient>
<linearGradient id="paint6_linear_256_2955" x1="190" y1="391" x2="190" y2="341" gradientUnits="userSpaceOnUse">
<stop stop-color="#FBB404"/>
<stop offset="1" stop-color="#F16A28"/>
</linearGradient>
<linearGradient id="paint7_linear_256_2955" x1="196.5" y1="443" x2="196.5" y2="366" gradientUnits="userSpaceOnUse">
<stop stop-color="#FBB404"/>
<stop offset="1" stop-color="#F16A28"/>
</linearGradient>
<linearGradient id="paint8_linear_256_2955" x1="203.5" y1="498" x2="203.5" y2="396" gradientUnits="userSpaceOnUse">
<stop stop-color="#FBB404"/>
<stop offset="1" stop-color="#F16A28"/>
</linearGradient>
<linearGradient id="paint9_linear_256_2955" x1="206" y1="549" x2="206" y2="438" gradientUnits="userSpaceOnUse">
<stop stop-color="#FBB404"/>
<stop offset="1" stop-color="#F16A28"/>
</linearGradient>
<linearGradient id="paint10_linear_256_2955" x1="350.614" y1="548.003" x2="350.614" y2="501.963" gradientUnits="userSpaceOnUse">
<stop stop-color="#FBB404"/>
<stop offset="1" stop-color="#F16A28"/>
</linearGradient>
<linearGradient id="paint11_linear_256_2955" x1="444.171" y1="548.403" x2="444.171" y2="466.486" gradientUnits="userSpaceOnUse">
<stop stop-color="#FBB404"/>
<stop offset="1" stop-color="#F16A28"/>
</linearGradient>
<linearGradient id="paint12_linear_256_2955" x1="438.795" y1="415.961" x2="438.795" y2="240.468" gradientUnits="userSpaceOnUse">
<stop stop-color="#FBB404"/>
<stop offset="1" stop-color="#F16A28"/>
</linearGradient>
<linearGradient id="paint13_linear_256_2955" x1="447.899" y1="470.072" x2="447.899" y2="357.262" gradientUnits="userSpaceOnUse">
<stop stop-color="#FBB404"/>
<stop offset="1" stop-color="#F16A28"/>
</linearGradient>
<linearGradient id="paint14_linear_256_2955" x1="421.546" y1="362.645" x2="421.546" y2="111.813" gradientUnits="userSpaceOnUse">
<stop stop-color="#FBB404"/>
<stop offset="1" stop-color="#F16A28"/>
</linearGradient>
<linearGradient id="paint15_linear_256_2955" x1="393.894" y1="319.295" x2="393.894" y2="-9.15527e-05" gradientUnits="userSpaceOnUse">
<stop stop-color="#FBB404"/>
<stop offset="1" stop-color="#F16A28"/>
</linearGradient>
</defs>
</svg>
