<svg width="232" height="78" viewBox="0 0 232 78" fill="none" xmlns="http://www.w3.org/2000/svg">
<g clip-path="url(#clip0_217_5)">
<path fill-rule="evenodd" clip-rule="evenodd" d="M10.4892 21.6316H6.23868V38.3335H0V0.333496H6.23868V15.5538H10.4892V0.333496H16.7273V38.3335H10.4892V21.6316Z" fill="#9263D5"/>
<path fill-rule="evenodd" clip-rule="evenodd" d="M27.6633 38.8333H26.4343C21.4074 38.8333 18.7266 36.327 18.7266 31.6191V23.9953H24.9824V30.6476C24.9824 32.3871 25.5966 33.3075 27.0491 33.3075C28.5569 33.3075 29.1158 32.3871 29.1158 30.0332V29.1634C29.1158 26.4523 28.8363 25.4801 26.5467 22.7684L22.5245 18.0611C19.8437 14.8886 19.0619 12.4329 19.0619 8.64656V7.41899C19.0619 2.35334 21.8539 0 26.8255 0H27.9986C33.1926 0 35.2033 2.09734 35.2033 6.60042V12.8424H29.1158V7.3678C29.1158 6.08843 28.8363 5.11626 27.3279 5.11626C25.8202 5.11626 25.4848 5.98604 25.4848 7.77679V8.49356C25.4848 10.6427 25.9319 11.8191 28.0538 14.326L32.0754 19.0845C34.9239 22.4612 35.8175 24.4061 35.8175 28.7032V29.932C35.8175 35.5078 33.1925 38.8333 27.6633 38.8333Z" fill="#9263D5"/>
<path fill-rule="evenodd" clip-rule="evenodd" d="M52.0324 0.333496V5.84909H44.0682V15.8094H50.3174V21.5811H44.0682V32.5624H52.3638V38.3335H37.8184V0.333496H52.0324Z" fill="#9263D5"/>
<path fill-rule="evenodd" clip-rule="evenodd" d="M68.6844 25.5141L66.99 11.4675L65.3528 25.5141H68.6844ZM69.3612 31.1824H64.7319L63.8851 38.3335H58.1816L63.3194 0.333496H70.886L76.3635 38.3335H70.2093L69.3612 31.1824Z" fill="#9263D5"/>
<path fill-rule="evenodd" clip-rule="evenodd" d="M83.6311 15.9621H85.3187C87.0626 15.9621 87.6256 14.9405 87.6256 13.2551V7.94336C87.6256 6.30907 87.2315 5.49192 85.3187 5.49192H83.6311V15.9621ZM83.6311 38.3335H77.2734V0.333496H87.5699C91.7889 0.333496 93.9269 1.96779 93.9269 6.20685V12.9485C93.9269 16.1154 92.2949 17.3408 91.1703 17.8008C92.5764 18.3624 93.9269 19.3846 93.9269 21.9377V35.2688C93.9269 36.8008 94.264 37.5152 94.5462 38.0768V38.3335H88.2442C87.9627 37.9246 87.6256 37.2608 87.6256 35.2176V23.777C87.6256 22.091 87.2884 21.3761 85.2624 21.3761H83.6311V38.3335Z" fill="#9263D5"/>
<path fill-rule="evenodd" clip-rule="evenodd" d="M106.373 5.84909V38.3335H100.17V5.84909H94.9082V0.333496H111.635V5.84909H106.373Z" fill="#9263D5"/>
<path fill-rule="evenodd" clip-rule="evenodd" d="M126.14 25.5141L124.445 11.4675L122.808 25.5141H126.14ZM126.817 31.1824H122.187L121.34 38.3335H115.637L120.775 0.333496H128.341L133.819 38.3335H127.664L126.817 31.1824Z" fill="#9263D5"/>
<path fill-rule="evenodd" clip-rule="evenodd" d="M140.559 0.333496L145.932 20.7122V0.333496H151.635V38.3335H146.541L140.559 16.4726V38.3335H134.908V0.333496H140.559Z" fill="#9263D5"/>
<path fill-rule="evenodd" clip-rule="evenodd" d="M160.482 32.8167H161.988C163.884 32.8167 164.442 31.8979 164.442 29.8554V8.45445C164.442 6.25796 163.828 5.49192 162.266 5.49192H160.482V32.8167ZM154.182 0.333496H163.829C169.236 0.333496 170.909 3.1421 170.909 7.6373V30.7741C170.909 35.4215 169.013 38.3335 163.829 38.3335H154.182V0.333496Z" fill="#9263D5"/>
<path fill-rule="evenodd" clip-rule="evenodd" d="M6.30087 71.9837H7.80602C9.70173 71.9837 10.2597 71.0649 10.2597 69.0223V47.6211C10.2597 45.4251 9.64658 44.6585 8.08499 44.6585H6.30087V71.9837ZM0 39.5H9.64658C15.0541 39.5 16.7273 42.3092 16.7273 46.8033V69.9417C16.7273 74.5885 14.8316 77.5 9.64658 77.5H0V39.5Z" fill="#9263D5"/>
<path fill-rule="evenodd" clip-rule="evenodd" d="M33.3052 39.5V45.0163H25.3417V54.9755H31.5909V60.7479H25.3417V71.7294H33.6373V77.5H19.0918V39.5H33.3052Z" fill="#9263D5"/>
<path fill-rule="evenodd" clip-rule="evenodd" d="M43.8449 77.9998H42.6159C37.589 77.9998 34.9082 75.493 34.9082 70.7853V63.1623H41.1641V69.8137C41.1641 71.5532 41.7782 72.4742 43.2301 72.4742C44.7385 72.4742 45.2974 71.5532 45.2974 69.1999V68.3302C45.2974 65.6186 45.018 64.6464 42.7284 61.9348L38.7062 57.227C36.0254 54.0552 35.2435 51.6002 35.2435 47.8146V46.5859C35.2435 41.5204 38.0355 39.1665 43.0072 39.1665H44.1802C49.3742 39.1665 51.385 41.2656 51.385 45.7667V52.0097H45.2974V46.5347C45.2974 45.2553 45.018 44.2832 43.5095 44.2832C42.0018 44.2832 41.6664 45.153 41.6664 46.9436V47.6604C41.6664 49.8089 42.1136 50.9864 44.2355 53.4927L48.257 58.2504C51.1055 61.6276 51.9991 63.5719 51.9991 67.87V69.0981C51.9991 74.6738 49.3742 77.9998 43.8449 77.9998Z" fill="#9263D5"/>
<mask id="mask0_217_5" style="mask-type:alpha" maskUnits="userSpaceOnUse" x="53" y="39" width="27" height="39">
<path d="M53.6602 39.1826H79.171V77.9644H53.6602V39.1826Z" fill="#1A1919"/>
</mask>
<g mask="url(#mask0_217_5)">
<path fill-rule="evenodd" clip-rule="evenodd" d="M53.6602 77.4896H60.0238V39.5405H53.6602V77.4896Z" fill="#9263D5"/>
</g>
<mask id="mask1_217_5" style="mask-type:alpha" maskUnits="userSpaceOnUse" x="53" y="39" width="27" height="39">
<path d="M53.6602 39.1826H79.171V77.9644H53.6602V39.1826Z" fill="#1A1919"/>
</mask>
<g mask="url(#mask1_217_5)">
<path fill-rule="evenodd" clip-rule="evenodd" d="M68.3019 78C64.5854 78 62.2207 74.9909 62.2207 71.0631V47.3439C62.2207 43.111 64.0226 39.1826 70.0481 39.1826H71.2865C78.101 39.1826 78.8892 43.2125 78.8892 47.7017V51.5785H72.6946V47.2928C72.6946 45.6102 72.2438 44.6921 70.668 44.6921C69.3162 44.6921 68.6964 45.6102 68.6964 47.2928V69.482C68.6964 71.2667 69.4846 72.1854 70.78 72.1854C72.4135 72.1854 73.1448 71.1652 73.1448 69.7367V60.2495H70.2729V54.4344H79.1703V77.4896H75.5665C75.5102 77.2854 75.0037 75.3987 74.4965 73.7665C74.0457 75.042 71.9057 78 68.6964 78H68.3019Z" fill="#9263D5"/>
</g>
<path fill-rule="evenodd" clip-rule="evenodd" d="M86.9231 39.5L92.2963 59.8785V39.5H98.0007V77.5H92.9053L86.9231 55.6394V77.5H81.2734V39.5H86.9231Z" fill="#9263D5"/>
<path fill-rule="evenodd" clip-rule="evenodd" d="M114.573 77.9998H113.344C108.318 77.9998 105.637 75.493 105.637 70.7853V63.1623H111.893V69.8137C111.893 71.5532 112.507 72.4742 113.959 72.4742C115.467 72.4742 116.025 71.5532 116.025 69.1999V68.3302C116.025 65.6186 115.746 64.6464 113.456 61.9348L109.435 57.227C106.754 54.0552 105.972 51.6002 105.972 47.8146V46.5859C105.972 41.5204 108.765 39.1665 113.736 39.1665H114.909C120.103 39.1665 122.113 41.2656 122.113 45.7667V52.0097H116.025V46.5347C116.025 45.2553 115.746 44.2832 114.238 44.2832C112.73 44.2832 112.396 45.153 112.396 46.9436V47.6604C112.396 49.8089 112.842 50.9864 114.964 53.4927L118.986 58.2504C121.834 61.6276 122.728 63.5719 122.728 67.87V69.0981C122.728 74.6738 120.103 77.9998 114.573 77.9998Z" fill="#9263D5"/>
<path fill-rule="evenodd" clip-rule="evenodd" d="M134.766 69.8245V60.9851H140.909V69.7734C140.909 73.8619 139.47 77.9998 133.438 77.9998H132.055C125.746 77.9998 124.363 73.8102 124.363 69.9785V46.78C124.363 42.8978 126.189 39.1665 131.834 39.1665H133.272C140.134 39.1665 140.909 43.3573 140.909 47.0874V53.8822H134.766V47.1891C134.766 45.5541 134.213 44.6855 132.664 44.6855C131.114 44.6855 130.727 45.5036 130.727 47.1891V69.7734C130.727 71.4594 131.335 72.3792 132.719 72.3792C134.213 72.3792 134.766 71.3572 134.766 69.8245Z" fill="#9263D5"/>
<path fill-rule="evenodd" clip-rule="evenodd" d="M153.397 60.799H149.146V77.5H142.908V39.5H149.146V54.7206H153.397V39.5H159.635V77.5H153.397V60.799Z" fill="#9263D5"/>
<path fill-rule="evenodd" clip-rule="evenodd" d="M172.844 47.5981C172.844 45.6052 172.118 44.6855 170.665 44.6855C169.044 44.6855 168.428 45.657 168.428 47.5981V69.4672C168.428 71.1021 168.931 72.3792 170.72 72.3792C172.397 72.3792 172.844 71.1021 172.844 69.4672V47.5981ZM179.273 69.0587C179.273 74.372 177.316 77.9998 171.223 77.9998H170.161C164.124 77.9998 162 74.372 162 69.0587V47.9043C162 42.6415 164.18 39.1665 170.105 39.1665H171.167C177.316 39.1665 179.273 42.6415 179.273 47.8531V69.0587Z" fill="#9263D5"/>
<path fill-rule="evenodd" clip-rule="evenodd" d="M191.936 47.5981C191.936 45.6052 191.209 44.6855 189.756 44.6855C188.135 44.6855 187.52 45.657 187.52 47.5981V69.4672C187.52 71.1021 188.023 72.3792 189.811 72.3792C191.489 72.3792 191.936 71.1021 191.936 69.4672V47.5981ZM198.365 69.0587C198.365 74.372 196.408 77.9998 190.315 77.9998H189.253C183.215 77.9998 181.092 74.372 181.092 69.0587V47.9043C181.092 42.6415 183.271 39.1665 189.197 39.1665H190.26C196.408 39.1665 198.365 42.6415 198.365 47.8531V69.0587Z" fill="#9263D5"/>
<path fill-rule="evenodd" clip-rule="evenodd" d="M207.03 39.5V71.6266H214.727V77.5H200.727V39.5H207.03Z" fill="#9263D5"/>
<path fill-rule="evenodd" clip-rule="evenodd" d="M223.344 39.2134C218.6 39.2134 214.754 42.7387 214.754 47.0874C214.754 51.4361 218.6 54.9614 223.344 54.9614C228.088 54.9614 231.934 51.4361 231.934 47.0874C231.934 42.7387 228.088 39.2134 223.344 39.2134Z" fill="#9263D5"/>
<path fill-rule="evenodd" clip-rule="evenodd" d="M221.522 52.8167C221.365 52.7748 221.251 52.806 221.216 52.9176C221.184 53.0188 221.253 53.1025 221.434 53.1508L221.706 53.2231L221.81 52.8935L221.522 52.8167ZM221.428 53.3428C221.28 53.3034 221.164 53.3302 221.128 53.4435C221.098 53.5379 221.162 53.6182 221.31 53.6577L221.548 53.721L221.649 53.4016L221.428 53.3428ZM221.718 53.9606L221.218 53.8445C221.069 53.8045 220.965 53.7277 220.912 53.6391C220.871 53.5704 220.861 53.4972 220.888 53.4131C220.934 53.2688 221.048 53.2155 221.16 53.1951C221.022 53.1061 220.941 52.997 220.994 52.8305C221.061 52.6159 221.291 52.5522 221.583 52.63L222.096 52.7667L221.718 53.9606Z" fill="white"/>
<path fill-rule="evenodd" clip-rule="evenodd" d="M220.039 52.7069C219.883 52.6226 219.832 52.5144 219.904 52.4035C219.982 52.2818 220.111 52.2667 220.264 52.3492L220.446 52.4471L220.217 52.8031L220.039 52.7069ZM220.37 52.1779C220.097 52.031 219.839 52.0741 219.699 52.2914C219.56 52.5086 219.661 52.7249 219.925 52.8673L220.111 52.9679L219.862 53.3562L220.067 53.4668L220.76 52.3883L220.37 52.1779Z" fill="white"/>
<path fill-rule="evenodd" clip-rule="evenodd" d="M218.721 52.7132L219.506 51.6895L219.7 51.8149L218.915 52.8386L218.721 52.7132Z" fill="white"/>
<path fill-rule="evenodd" clip-rule="evenodd" d="M215.95 46.4586C215.935 46.6368 216.021 46.6971 216.128 46.7051C216.268 46.7155 216.348 46.6085 216.359 46.4819L216.372 46.3394L215.968 46.3092C215.96 46.3678 215.954 46.4176 215.95 46.4586ZM217.085 46.3964L216.595 46.356L216.582 46.5093L216.902 46.7556C217.062 46.8787 217.092 47.0262 217.04 47.1282L216.833 47.1318C216.861 47.0639 216.817 46.9645 216.754 46.9131L216.516 46.725C216.468 46.8254 216.339 46.9539 216.106 46.9365C215.87 46.919 215.69 46.7948 215.72 46.4544C215.723 46.4188 215.755 46.145 215.768 46.0757L217.119 46.1749L217.085 46.3964Z" fill="white"/>
<path fill-rule="evenodd" clip-rule="evenodd" d="M218.145 50.9978C218.295 50.9685 218.453 51.0077 218.57 51.1231C218.754 51.3055 218.723 51.5726 218.529 51.7378C218.331 51.9054 218.044 51.9129 217.86 51.7306C217.747 51.6187 217.715 51.4749 217.752 51.3424L217.512 51.2959C217.469 51.4881 217.525 51.6967 217.695 51.8651C217.98 52.1472 218.417 52.1463 218.699 51.907C218.984 51.6654 219.019 51.2706 218.734 50.9885C218.56 50.8158 218.328 50.7493 218.109 50.7787L218.145 50.9978Z" fill="white"/>
<path fill-rule="evenodd" clip-rule="evenodd" d="M216.64 48.2915L216.069 48.1604L216.566 47.87C216.576 47.9408 216.587 48.0115 216.599 48.0817C216.611 48.1516 216.625 48.2217 216.64 48.2915ZM215.768 48.0979L215.803 48.2991L217.274 48.6459L217.21 48.4186L216.869 48.3412L216.868 48.3411C216.846 48.2449 216.827 48.1475 216.81 48.0506C216.793 47.9535 216.778 47.8552 216.766 47.7572L216.767 47.757L217.064 47.5885L217.046 47.3477L215.768 48.0979Z" fill="white"/>
<path fill-rule="evenodd" clip-rule="evenodd" d="M217.232 49.1777C217.295 49.3329 217.365 49.4853 217.441 49.6348L216.419 50.0955C216.453 50.1617 216.488 50.2275 216.525 50.2928L217.547 49.8321C217.628 49.9768 217.716 50.1186 217.81 50.2571L216.785 50.723C216.826 50.7857 216.869 50.8477 216.912 50.9091L217.943 50.4452L218.144 50.3546C217.806 49.8995 217.541 49.4059 217.355 48.8828L217.154 48.9734L216.123 49.4378C216.15 49.5067 216.177 49.5752 216.206 49.6432L217.232 49.1777Z" fill="white"/>
<path fill-rule="evenodd" clip-rule="evenodd" d="M230.065 45.2604C230.314 45.1758 230.453 44.9395 230.359 44.7065C230.265 44.4736 229.996 44.3801 229.743 44.466C229.495 44.5507 229.355 44.7869 229.45 45.0198C229.544 45.2528 229.813 45.3463 230.065 45.2604ZM229.656 44.2498C230.016 44.1272 230.421 44.2792 230.567 44.6395C230.713 44.9998 230.517 45.3527 230.153 45.4766C229.793 45.5992 229.388 45.4472 229.242 45.0869C229.096 44.7266 229.292 44.3737 229.656 44.2498Z" fill="white"/>
<path fill-rule="evenodd" clip-rule="evenodd" d="M230.156 48.6254C230.417 48.6676 230.668 48.5284 230.715 48.2837C230.762 48.039 230.582 47.8337 230.317 47.7909C230.055 47.7487 229.805 47.8878 229.758 48.1325C229.711 48.3773 229.891 48.5825 230.156 48.6254ZM230.36 47.5638C230.739 47.625 231.004 47.9438 230.931 48.3223C230.858 48.7008 230.494 48.9143 230.112 48.8525C229.734 48.7913 229.469 48.4725 229.541 48.0939C229.614 47.7154 229.978 47.502 230.36 47.5638Z" fill="white"/>
<path fill-rule="evenodd" clip-rule="evenodd" d="M229.062 43.9649L229.205 43.5582L230.033 43.666L229.886 43.4477L229.158 43.3721L229.082 43.2658L229.556 42.9804L229.411 42.8042L228.283 43.4832L228.424 43.6614L228.896 43.3777L228.986 43.5039L228.846 43.8747C228.771 44.0632 228.752 44.2455 228.914 44.3705L229.088 44.2655C229.013 44.206 229.013 44.1079 229.062 43.9649Z" fill="white"/>
<path fill-rule="evenodd" clip-rule="evenodd" d="M226.601 52.4083L227.04 52.5499L226.901 53.3059L227.143 53.1771L227.244 52.5119L227.362 52.445L227.661 52.8872L227.857 52.7593L227.146 51.7075L226.948 51.8319L227.245 52.2717L227.105 52.3512L226.705 52.2126C226.501 52.1388 226.303 52.1168 226.162 52.2618L226.272 52.4245C226.339 52.357 226.446 52.3594 226.601 52.4083Z" fill="white"/>
<path fill-rule="evenodd" clip-rule="evenodd" d="M229.379 51.4095L229.23 51.5781L228.505 50.967L228.726 52.082L228.557 52.2307L227.559 51.39L227.73 51.2406L228.463 51.8572L228.24 50.7318L228.38 50.5684L229.379 51.4095Z" fill="white"/>
<path fill-rule="evenodd" clip-rule="evenodd" d="M226.259 53.5784L226.038 53.6577L225.738 52.7974L225.328 53.867L225.102 53.9199L224.688 52.7366L224.917 52.6844L225.22 53.5524L225.633 52.4731L225.843 52.3945L226.259 53.5784Z" fill="white"/>
<path fill-rule="evenodd" clip-rule="evenodd" d="M229.247 50.2898C229.409 50.3545 229.603 50.4314 229.77 50.509L229.773 50.5037C229.644 50.3971 228.956 49.7066 228.956 49.7066L229.046 49.5403C229.046 49.5403 230.042 49.6499 230.213 49.6873L230.214 49.6838C230.057 49.606 229.866 49.5106 229.703 49.426L229.224 49.1759L229.31 48.9639L230.494 49.6016L230.364 49.8945C230.364 49.8945 229.439 49.8021 229.286 49.7704L229.284 49.7757C229.399 49.8677 230.037 50.502 230.037 50.502L229.864 50.771L228.6 50.2852L228.733 50.0861L229.247 50.2898Z" fill="white"/>
<path fill-rule="evenodd" clip-rule="evenodd" d="M230.992 46.791L230.427 46.8395L230.423 46.8398C230.418 46.7206 230.409 46.6008 230.397 46.4823C230.385 46.3638 230.369 46.2445 230.35 46.1266L230.354 46.1263L230.923 46.0774L230.884 45.8599L229.537 45.9756L229.575 46.1932L230.132 46.1453L230.138 46.1449C230.157 46.2626 230.173 46.3819 230.185 46.5005C230.197 46.6191 230.206 46.7388 230.211 46.8581L230.205 46.8585L229.649 46.9063L229.655 47.1267L231.003 47.0108L230.992 46.791Z" fill="white"/>
<path fill-rule="evenodd" clip-rule="evenodd" d="M228.51 41.8509C228.325 41.6965 228.097 41.647 227.887 41.6882L227.94 41.9075C228.085 41.8724 228.242 41.9003 228.365 42.0028C228.537 42.1466 228.557 42.3616 228.444 42.5352C228.343 42.4407 228.239 42.3483 228.132 42.2595C228.088 42.2226 228.043 42.1857 227.998 42.15L227.858 42.2979C227.902 42.3325 227.946 42.3684 227.989 42.4042C228.096 42.4931 228.2 42.5857 228.301 42.6805C228.123 42.8004 227.882 42.8038 227.709 42.6593C227.582 42.5535 227.538 42.4091 227.568 42.271L227.329 42.2407C227.299 42.441 227.373 42.6529 227.563 42.8112C227.874 43.0697 228.304 43.0343 228.565 42.7711C228.823 42.5104 228.82 42.1093 228.51 41.8509Z" fill="white"/>
<path fill-rule="evenodd" clip-rule="evenodd" d="M221.629 40.8683C221.547 40.637 221.295 40.4996 221.037 40.5764C220.78 40.6532 220.666 40.8956 220.75 41.1302C220.832 41.3614 221.083 41.4988 221.341 41.422C221.599 41.3452 221.712 41.1029 221.629 40.8683ZM220.51 41.2015C220.392 40.8665 220.574 40.502 220.973 40.3832C221.372 40.2644 221.748 40.4587 221.868 40.797C221.987 41.132 221.804 41.4965 221.406 41.6153C221.007 41.734 220.63 41.5398 220.51 41.2015Z" fill="white"/>
<path fill-rule="evenodd" clip-rule="evenodd" d="M220.125 41.7493L219.687 41.6054L219.831 40.8501L219.588 40.9776L219.482 41.6423L219.364 41.7086L219.068 41.2646L218.871 41.3916L219.575 42.4471L219.774 42.3238L219.48 41.8825L219.62 41.8037L220.02 41.9445C220.223 42.0193 220.421 42.0424 220.563 41.8982L220.454 41.735C220.387 41.802 220.28 41.7991 220.125 41.7493Z" fill="white"/>
<path fill-rule="evenodd" clip-rule="evenodd" d="M218.87 42.7454C218.738 42.859 218.613 42.9774 218.492 43.1003L217.631 42.4175C217.577 42.4722 217.525 42.5276 217.474 42.5838L218.335 43.2667C218.222 43.3917 218.114 43.521 218.011 43.6545L217.143 42.9718C217.097 43.0309 217.051 43.0909 217.006 43.1513L217.874 43.8404L218.044 43.9749C218.369 43.5113 218.761 43.0952 219.214 42.734L218.176 41.9111C218.117 41.9605 218.059 42.0107 218.002 42.0617L218.87 42.7454Z" fill="white"/>
<path fill-rule="evenodd" clip-rule="evenodd" d="M224.377 40.8952L224.705 40.4469L224.835 40.9739C224.759 40.9584 224.682 40.944 224.606 40.9309C224.53 40.9178 224.454 40.906 224.377 40.8952ZM224.871 40.208L224.652 40.1704L223.799 41.3223L224.054 41.3441L224.248 41.076L224.249 41.0755C224.355 41.089 224.462 41.1049 224.567 41.123C224.672 41.1411 224.778 41.1618 224.883 41.1846V41.1851L224.955 41.4985L225.209 41.5646L224.871 40.208Z" fill="white"/>
<path fill-rule="evenodd" clip-rule="evenodd" d="M223.022 40.0731L222.508 40.1089C222.496 40.1101 222.485 40.1113 222.474 40.1125L222.49 40.3075L222.494 40.3573C222.556 41.1042 222.434 41.1934 222.296 41.203C222.267 41.205 222.235 41.2019 222.217 41.1977L222.209 41.3794C222.247 41.3858 222.323 41.3912 222.376 41.3875C222.644 41.3688 222.789 41.1991 222.723 40.4059L222.713 40.287C222.735 40.2852 222.758 40.2834 222.781 40.2818C222.915 40.2725 223.05 40.2664 223.184 40.2636L223.271 41.3107L223.51 41.294L223.409 40.0666C223.28 40.0658 223.151 40.068 223.022 40.0731Z" fill="white"/>
<path fill-rule="evenodd" clip-rule="evenodd" d="M223.621 53.499C223.621 53.3607 223.498 53.2485 223.347 53.2485C223.197 53.2485 223.074 53.3607 223.074 53.499C223.074 53.6374 223.197 53.7495 223.347 53.7495C223.498 53.7495 223.621 53.6374 223.621 53.499Z" fill="white"/>
<path fill-rule="evenodd" clip-rule="evenodd" d="M216.763 44.9405C216.903 44.9921 217.062 44.9298 217.119 44.8014C217.175 44.673 217.107 44.5272 216.967 44.4756C216.827 44.4241 216.668 44.4864 216.612 44.6147C216.555 44.7431 216.623 44.889 216.763 44.9405Z" fill="white"/>
<path fill-rule="evenodd" clip-rule="evenodd" d="M226.254 41.266C226.186 41.3894 226.24 41.5401 226.375 41.6025C226.509 41.6649 226.674 41.6154 226.742 41.4919C226.81 41.3685 226.756 41.2178 226.621 41.1554C226.486 41.093 226.322 41.1425 226.254 41.266Z" fill="white"/>
<path fill-rule="evenodd" clip-rule="evenodd" d="M224.987 50.275H224.109V47.8117H223.096V50.2776H222.32V43.67L223.117 43.6703C223.415 43.6703 223.868 43.7309 224.188 44.0951C224.354 44.2797 224.457 44.5248 224.493 44.7708H223.096V45.1346H224.505C224.494 45.3695 224.442 45.6324 224.191 45.9114C223.97 46.1645 223.607 46.3993 223.095 46.3993C223.092 46.3993 223.09 46.3993 223.086 46.3993V46.768C224.455 46.768 224.987 47.6013 224.987 49.1272V50.275ZM226.09 49.2649C226.09 47.9099 225.613 46.9987 224.375 46.5979C224.765 46.4509 225.003 46.2254 225.159 46.0542C225.457 45.7407 225.578 45.3562 225.578 44.992C225.578 44.6983 225.489 44.1117 224.927 43.7074C224.54 43.4342 224.199 43.3025 223.382 43.3025H222.969C222.956 43.302 222.944 43.3018 222.928 43.3018H221.223V50.6813H226.09V49.2649Z" fill="white"/>
</g>
<defs>
<clipPath id="clip0_217_5">
<rect width="232" height="78" fill="white"/>
</clipPath>
</defs>
</svg>
