<svg width="483" height="648" viewBox="0 0 483 648" fill="none" xmlns="http://www.w3.org/2000/svg">
<path d="M53.5905 362.337C409.924 376.163 499.64 213.254 485.369 20.8336C484.946 15.1325 489.276 10.1278 494.987 9.88015L712.165 0.462707C717.382 0.236494 721.904 4.04752 722.429 9.24277C735.798 141.689 694.551 302.54 671.72 367.694C565.812 616.111 226.462 657.026 64.0988 646.399C60.3494 646.154 57.2004 643.797 55.7479 640.332L0.981193 509.67C0.060452 507.473 -0.0459321 505.019 0.681191 502.751L43.4656 369.293C44.844 364.994 49.0788 362.162 53.5905 362.337Z" fill="url(#paint0_linear_260_3077)"/>
<defs>
<linearGradient id="paint0_linear_260_3077" x1="-1.82215" y1="499.76" x2="466.904" y2="382.914" gradientUnits="userSpaceOnUse">
<stop stop-color="#E8D41A"/>
<stop offset="1" stop-color="#E8D41A" stop-opacity="0"/>
</linearGradient>
</defs>
</svg>
