<svg width="2332" height="598" viewBox="0 0 2332 598" fill="none" xmlns="http://www.w3.org/2000/svg">
<rect y="149.5" width="146" height="149.5" fill="url(#paint0_linear_249_149)"/>
<rect x="292" y="149.5" width="145" height="149.5" fill="url(#paint1_linear_249_149)"/>
<rect width="145" height="149.5" transform="matrix(1 0 0 -1 146 149.5)" fill="url(#paint2_linear_249_149)"/>
<rect width="146" height="149.5" transform="matrix(1 0 0 -1 437 149.5)" fill="url(#paint3_linear_249_149)"/>
<rect x="583" y="149.5" width="146" height="149.5" fill="url(#paint4_linear_249_149)"/>
<rect x="875" y="149.5" width="145" height="149.5" fill="url(#paint5_linear_249_149)"/>
<rect width="145" height="149.5" transform="matrix(1 0 0 -1 729 149.5)" fill="url(#paint6_linear_249_149)"/>
<rect width="146" height="149.5" transform="matrix(1 0 0 -1 1020 149.5)" fill="url(#paint7_linear_249_149)"/>
<rect y="448.5" width="146" height="149.5" fill="url(#paint8_linear_249_149)"/>
<rect x="292" y="448.5" width="145" height="149.5" fill="url(#paint9_linear_249_149)"/>
<rect width="145" height="149.5" transform="matrix(1 0 0 -1 146 448.5)" fill="url(#paint10_linear_249_149)"/>
<rect width="146" height="149.5" transform="matrix(1 0 0 -1 437 448.5)" fill="url(#paint11_linear_249_149)"/>
<rect x="583" y="448.5" width="146" height="149.5" fill="url(#paint12_linear_249_149)"/>
<rect x="875" y="448.5" width="145" height="149.5" fill="url(#paint13_linear_249_149)"/>
<rect width="145" height="149.5" transform="matrix(1 0 0 -1 729 448.5)" fill="url(#paint14_linear_249_149)"/>
<rect width="146" height="149.5" transform="matrix(1 0 0 -1 1020 448.5)" fill="url(#paint15_linear_249_149)"/>
<rect x="1166" y="149.5" width="146" height="149.5" fill="url(#paint16_linear_249_149)"/>
<rect x="1458" y="149.5" width="145" height="149.5" fill="url(#paint17_linear_249_149)"/>
<rect width="145" height="149.5" transform="matrix(1 0 0 -1 1312 149.5)" fill="url(#paint18_linear_249_149)"/>
<rect width="146" height="149.5" transform="matrix(1 0 0 -1 1603 149.5)" fill="url(#paint19_linear_249_149)"/>
<rect x="1749" y="149.5" width="146" height="149.5" fill="url(#paint20_linear_249_149)"/>
<rect x="2041" y="149.5" width="145" height="149.5" fill="url(#paint21_linear_249_149)"/>
<rect width="145" height="149.5" transform="matrix(1 0 0 -1 1895 149.5)" fill="url(#paint22_linear_249_149)"/>
<rect width="146" height="149.5" transform="matrix(1 0 0 -1 2186 149.5)" fill="url(#paint23_linear_249_149)"/>
<rect x="1166" y="448.5" width="146" height="149.5" fill="url(#paint24_linear_249_149)"/>
<rect x="1458" y="448.5" width="145" height="149.5" fill="url(#paint25_linear_249_149)"/>
<rect width="145" height="149.5" transform="matrix(1 0 0 -1 1312 448.5)" fill="url(#paint26_linear_249_149)"/>
<rect width="146" height="149.5" transform="matrix(1 0 0 -1 1603 448.5)" fill="url(#paint27_linear_249_149)"/>
<rect x="1749" y="448.5" width="146" height="149.5" fill="url(#paint28_linear_249_149)"/>
<rect x="2041" y="448.5" width="145" height="149.5" fill="url(#paint29_linear_249_149)"/>
<rect width="145" height="149.5" transform="matrix(1 0 0 -1 1895 448.5)" fill="url(#paint30_linear_249_149)"/>
<rect width="146" height="149.5" transform="matrix(1 0 0 -1 2186 448.5)" fill="url(#paint31_linear_249_149)"/>
<defs>
<linearGradient id="paint0_linear_249_149" x1="73" y1="149.5" x2="73" y2="299" gradientUnits="userSpaceOnUse">
<stop stop-color="#9263D5"/>
<stop offset="1" stop-color="#9263D5" stop-opacity="0"/>
</linearGradient>
<linearGradient id="paint1_linear_249_149" x1="364.5" y1="149.5" x2="364.5" y2="299" gradientUnits="userSpaceOnUse">
<stop stop-color="#9263D5"/>
<stop offset="1" stop-color="#9263D5" stop-opacity="0"/>
</linearGradient>
<linearGradient id="paint2_linear_249_149" x1="72.5" y1="0" x2="72.5" y2="149.5" gradientUnits="userSpaceOnUse">
<stop stop-color="#9263D5"/>
<stop offset="1" stop-color="#9263D5" stop-opacity="0"/>
</linearGradient>
<linearGradient id="paint3_linear_249_149" x1="73" y1="0" x2="73" y2="149.5" gradientUnits="userSpaceOnUse">
<stop stop-color="#9263D5"/>
<stop offset="1" stop-color="#9263D5" stop-opacity="0"/>
</linearGradient>
<linearGradient id="paint4_linear_249_149" x1="656" y1="149.5" x2="656" y2="299" gradientUnits="userSpaceOnUse">
<stop stop-color="#9263D5"/>
<stop offset="1" stop-color="#9263D5" stop-opacity="0"/>
</linearGradient>
<linearGradient id="paint5_linear_249_149" x1="947.5" y1="149.5" x2="947.5" y2="299" gradientUnits="userSpaceOnUse">
<stop stop-color="#9263D5"/>
<stop offset="1" stop-color="#9263D5" stop-opacity="0"/>
</linearGradient>
<linearGradient id="paint6_linear_249_149" x1="72.5" y1="0" x2="72.5" y2="149.5" gradientUnits="userSpaceOnUse">
<stop stop-color="#9263D5"/>
<stop offset="1" stop-color="#9263D5" stop-opacity="0"/>
</linearGradient>
<linearGradient id="paint7_linear_249_149" x1="73" y1="0" x2="73" y2="149.5" gradientUnits="userSpaceOnUse">
<stop stop-color="#9263D5"/>
<stop offset="1" stop-color="#9263D5" stop-opacity="0"/>
</linearGradient>
<linearGradient id="paint8_linear_249_149" x1="73" y1="448.5" x2="73" y2="598" gradientUnits="userSpaceOnUse">
<stop stop-color="#9263D5"/>
<stop offset="1" stop-color="#9263D5" stop-opacity="0"/>
</linearGradient>
<linearGradient id="paint9_linear_249_149" x1="364.5" y1="448.5" x2="364.5" y2="598" gradientUnits="userSpaceOnUse">
<stop stop-color="#9263D5"/>
<stop offset="1" stop-color="#9263D5" stop-opacity="0"/>
</linearGradient>
<linearGradient id="paint10_linear_249_149" x1="72.5" y1="0" x2="72.5" y2="149.5" gradientUnits="userSpaceOnUse">
<stop stop-color="#9263D5"/>
<stop offset="1" stop-color="#9263D5" stop-opacity="0"/>
</linearGradient>
<linearGradient id="paint11_linear_249_149" x1="73" y1="0" x2="73" y2="149.5" gradientUnits="userSpaceOnUse">
<stop stop-color="#9263D5"/>
<stop offset="1" stop-color="#9263D5" stop-opacity="0"/>
</linearGradient>
<linearGradient id="paint12_linear_249_149" x1="656" y1="448.5" x2="656" y2="598" gradientUnits="userSpaceOnUse">
<stop stop-color="#9263D5"/>
<stop offset="1" stop-color="#9263D5" stop-opacity="0"/>
</linearGradient>
<linearGradient id="paint13_linear_249_149" x1="947.5" y1="448.5" x2="947.5" y2="598" gradientUnits="userSpaceOnUse">
<stop stop-color="#9263D5"/>
<stop offset="1" stop-color="#9263D5" stop-opacity="0"/>
</linearGradient>
<linearGradient id="paint14_linear_249_149" x1="72.5" y1="0" x2="72.5" y2="149.5" gradientUnits="userSpaceOnUse">
<stop stop-color="#9263D5"/>
<stop offset="1" stop-color="#9263D5" stop-opacity="0"/>
</linearGradient>
<linearGradient id="paint15_linear_249_149" x1="73" y1="0" x2="73" y2="149.5" gradientUnits="userSpaceOnUse">
<stop stop-color="#9263D5"/>
<stop offset="1" stop-color="#9263D5" stop-opacity="0"/>
</linearGradient>
<linearGradient id="paint16_linear_249_149" x1="1239" y1="149.5" x2="1239" y2="299" gradientUnits="userSpaceOnUse">
<stop stop-color="#9263D5"/>
<stop offset="1" stop-color="#9263D5" stop-opacity="0"/>
</linearGradient>
<linearGradient id="paint17_linear_249_149" x1="1530.5" y1="149.5" x2="1530.5" y2="299" gradientUnits="userSpaceOnUse">
<stop stop-color="#9263D5"/>
<stop offset="1" stop-color="#9263D5" stop-opacity="0"/>
</linearGradient>
<linearGradient id="paint18_linear_249_149" x1="72.5" y1="0" x2="72.5" y2="149.5" gradientUnits="userSpaceOnUse">
<stop stop-color="#9263D5"/>
<stop offset="1" stop-color="#9263D5" stop-opacity="0"/>
</linearGradient>
<linearGradient id="paint19_linear_249_149" x1="73" y1="0" x2="73" y2="149.5" gradientUnits="userSpaceOnUse">
<stop stop-color="#9263D5"/>
<stop offset="1" stop-color="#9263D5" stop-opacity="0"/>
</linearGradient>
<linearGradient id="paint20_linear_249_149" x1="1822" y1="149.5" x2="1822" y2="299" gradientUnits="userSpaceOnUse">
<stop stop-color="#9263D5"/>
<stop offset="1" stop-color="#9263D5" stop-opacity="0"/>
</linearGradient>
<linearGradient id="paint21_linear_249_149" x1="2113.5" y1="149.5" x2="2113.5" y2="299" gradientUnits="userSpaceOnUse">
<stop stop-color="#9263D5"/>
<stop offset="1" stop-color="#9263D5" stop-opacity="0"/>
</linearGradient>
<linearGradient id="paint22_linear_249_149" x1="72.5" y1="0" x2="72.5" y2="149.5" gradientUnits="userSpaceOnUse">
<stop stop-color="#9263D5"/>
<stop offset="1" stop-color="#9263D5" stop-opacity="0"/>
</linearGradient>
<linearGradient id="paint23_linear_249_149" x1="73" y1="0" x2="73" y2="149.5" gradientUnits="userSpaceOnUse">
<stop stop-color="#9263D5"/>
<stop offset="1" stop-color="#9263D5" stop-opacity="0"/>
</linearGradient>
<linearGradient id="paint24_linear_249_149" x1="1239" y1="448.5" x2="1239" y2="598" gradientUnits="userSpaceOnUse">
<stop stop-color="#9263D5"/>
<stop offset="1" stop-color="#9263D5" stop-opacity="0"/>
</linearGradient>
<linearGradient id="paint25_linear_249_149" x1="1530.5" y1="448.5" x2="1530.5" y2="598" gradientUnits="userSpaceOnUse">
<stop stop-color="#9263D5"/>
<stop offset="1" stop-color="#9263D5" stop-opacity="0"/>
</linearGradient>
<linearGradient id="paint26_linear_249_149" x1="72.5" y1="0" x2="72.5" y2="149.5" gradientUnits="userSpaceOnUse">
<stop stop-color="#9263D5"/>
<stop offset="1" stop-color="#9263D5" stop-opacity="0"/>
</linearGradient>
<linearGradient id="paint27_linear_249_149" x1="73" y1="0" x2="73" y2="149.5" gradientUnits="userSpaceOnUse">
<stop stop-color="#9263D5"/>
<stop offset="1" stop-color="#9263D5" stop-opacity="0"/>
</linearGradient>
<linearGradient id="paint28_linear_249_149" x1="1822" y1="448.5" x2="1822" y2="598" gradientUnits="userSpaceOnUse">
<stop stop-color="#9263D5"/>
<stop offset="1" stop-color="#9263D5" stop-opacity="0"/>
</linearGradient>
<linearGradient id="paint29_linear_249_149" x1="2113.5" y1="448.5" x2="2113.5" y2="598" gradientUnits="userSpaceOnUse">
<stop stop-color="#9263D5"/>
<stop offset="1" stop-color="#9263D5" stop-opacity="0"/>
</linearGradient>
<linearGradient id="paint30_linear_249_149" x1="72.5" y1="0" x2="72.5" y2="149.5" gradientUnits="userSpaceOnUse">
<stop stop-color="#9263D5"/>
<stop offset="1" stop-color="#9263D5" stop-opacity="0"/>
</linearGradient>
<linearGradient id="paint31_linear_249_149" x1="73" y1="0" x2="73" y2="149.5" gradientUnits="userSpaceOnUse">
<stop stop-color="#9263D5"/>
<stop offset="1" stop-color="#9263D5" stop-opacity="0"/>
</linearGradient>
</defs>
</svg>
