<svg width="1620" height="525" viewBox="0 0 1620 525" fill="none" xmlns="http://www.w3.org/2000/svg">
<path d="M1213.12 0.0512695L1079.91 262.526L1213.12 525L1349.95 262.526L1213.12 0.0512695Z" fill="url(#paint0_linear_251_165)"/>
<path d="M943.075 0.0512695L809.865 262.526L943.075 525L1079.91 262.526L943.075 0.0512695Z" fill="url(#paint1_linear_251_165)"/>
<path d="M1483.17 0.0512695L1349.96 262.526L1483.17 525L1620 262.526L1483.17 0.0512695Z" fill="url(#paint2_linear_251_165)"/>
<path d="M403.254 0.0512695L270.044 262.526L403.254 525L540.089 262.526L403.254 0.0512695Z" fill="url(#paint3_linear_251_165)"/>
<path d="M133.21 0.0512695L0 262.526L133.21 525L270.045 262.526L133.21 0.0512695Z" fill="url(#paint4_linear_251_165)"/>
<path d="M673.301 0.0512695L540.091 262.526L673.301 525L810.136 262.526L673.301 0.0512695Z" fill="url(#paint5_linear_251_165)"/>
<defs>
<linearGradient id="paint0_linear_251_165" x1="1214.93" y1="0.0512695" x2="1214.93" y2="525" gradientUnits="userSpaceOnUse">
<stop stop-color="#FBB404"/>
<stop offset="1" stop-color="#FBB404" stop-opacity="0"/>
</linearGradient>
<linearGradient id="paint1_linear_251_165" x1="944.888" y1="0.0512695" x2="944.888" y2="525" gradientUnits="userSpaceOnUse">
<stop stop-color="#FBB404"/>
<stop offset="1" stop-color="#FBB404" stop-opacity="0"/>
</linearGradient>
<linearGradient id="paint2_linear_251_165" x1="1484.98" y1="0.0512695" x2="1484.98" y2="525" gradientUnits="userSpaceOnUse">
<stop stop-color="#FBB404"/>
<stop offset="1" stop-color="#FBB404" stop-opacity="0"/>
</linearGradient>
<linearGradient id="paint3_linear_251_165" x1="405.066" y1="0.0512695" x2="405.066" y2="525" gradientUnits="userSpaceOnUse">
<stop stop-color="#FBB404"/>
<stop offset="1" stop-color="#FBB404" stop-opacity="0"/>
</linearGradient>
<linearGradient id="paint4_linear_251_165" x1="135.023" y1="0.0512695" x2="135.023" y2="525" gradientUnits="userSpaceOnUse">
<stop stop-color="#FBB404"/>
<stop offset="1" stop-color="#FBB404" stop-opacity="0"/>
</linearGradient>
<linearGradient id="paint5_linear_251_165" x1="675.113" y1="0.0512695" x2="675.113" y2="525" gradientUnits="userSpaceOnUse">
<stop stop-color="#FBB404"/>
<stop offset="1" stop-color="#FBB404" stop-opacity="0"/>
</linearGradient>
</defs>
</svg>
