<svg width="766" height="370" viewBox="0 0 766 370" fill="none" xmlns="http://www.w3.org/2000/svg">
<mask id="mask0_219_70" style="mask-type:alpha" maskUnits="userSpaceOnUse" x="0" y="0" width="766" height="370">
<rect width="766" height="370" rx="10" fill="#33A4CB"/>
</mask>
<g mask="url(#mask0_219_70)">
<path d="M-18.15 99V27.5H14.3C17.6 27.5 20.6067 27.83 23.32 28.49C26.1067 29.15 28.49 30.2133 30.47 31.68C32.5233 33.0733 34.1 34.9433 35.2 37.29C36.3 39.5633 36.85 42.35 36.85 45.65C36.85 48.95 36.2267 51.6267 34.98 53.68C33.7333 55.7333 32.34 57.3467 30.8 58.52C29.04 59.9133 27.0233 60.94 24.75 61.6V62.15C27.39 62.81 29.7733 63.8733 31.9 65.34C33.7333 66.5867 35.3833 68.31 36.85 70.51C38.3167 72.71 39.05 75.6067 39.05 79.2C39.05 82.7933 38.4633 85.8367 37.29 88.33C36.1167 90.8233 34.43 92.8767 32.23 94.49C30.1033 96.03 27.5 97.1667 24.42 97.9C21.4133 98.6333 18.04 99 14.3 99H-18.15ZM-8.8 66V91.85H14.3C18.7 91.85 22.2567 90.86 24.97 88.88C27.7567 86.8267 29.15 83.6 29.15 79.2C29.15 74.8 27.72 71.5 24.86 69.3C22 67.1 18.48 66 14.3 66H-8.8ZM14.3 58.85C18.1867 58.85 21.34 57.86 23.76 55.88C26.2533 53.8267 27.5 50.6 27.5 46.2C27.5 42.02 26.2533 39.05 23.76 37.29C21.34 35.53 18.1867 34.65 14.3 34.65H-8.8V58.85H14.3ZM54.4715 27.5V64.35L89.1215 27.5H99.7915L72.1815 56.32L101.221 99H90.0015L66.1315 62.59L54.4715 74.8V99H45.1215V27.5H54.4715ZM111.676 27.5L135.986 72.6L156.776 27.5H167.226L139.726 85.25C138.332 88.1833 136.902 90.5667 135.436 92.4C134.042 94.2333 132.576 95.7 131.036 96.8C129.496 97.8267 127.882 98.56 126.196 99C124.509 99.3667 122.786 99.55 121.026 99.55C120.219 99.55 119.412 99.5133 118.606 99.44C117.799 99.44 117.102 99.4033 116.516 99.33C115.782 99.1833 115.086 99.0733 114.426 99V90.97C114.866 91.0433 115.379 91.08 115.966 91.08C116.479 91.1533 117.066 91.2267 117.726 91.3C118.386 91.3 119.119 91.3 119.926 91.3C120.879 91.3 121.832 91.2267 122.786 91.08C123.739 90.9333 124.692 90.6033 125.646 90.09C126.672 89.5033 127.662 88.6233 128.616 87.45C129.569 86.2033 130.522 84.5533 131.476 82.5L101.226 27.5H111.676ZM198.086 25.85C203.733 25.85 208.463 26.62 212.276 28.16C216.089 29.6267 219.169 31.57 221.516 33.99C223.863 36.41 225.586 39.1233 226.686 42.13C227.859 45.1367 228.593 48.1433 228.886 51.15H219.536C218.949 45.0633 216.749 40.4433 212.936 37.29C209.123 34.0633 204.173 32.45 198.086 32.45C191.193 32.45 185.619 35.0167 181.366 40.15C177.113 45.2833 174.986 52.9833 174.986 63.25C174.986 73.5167 177.113 81.2167 181.366 86.35C185.619 91.4833 191.193 94.05 198.086 94.05C204.173 94.05 209.123 92.4733 212.936 89.32C216.749 86.0933 218.949 81.4367 219.536 75.35H228.886C228.593 78.3567 227.859 81.3633 226.686 84.37C225.586 87.3767 223.863 90.09 221.516 92.51C219.169 94.93 216.089 96.91 212.276 98.45C208.463 99.9167 203.733 100.65 198.086 100.65C192.586 100.65 187.783 99.7333 183.676 97.9C179.569 96.0667 176.123 93.5 173.336 90.2C170.623 86.9 168.569 82.9767 167.176 78.43C165.783 73.81 165.086 68.75 165.086 63.25C165.086 57.75 165.783 52.7267 167.176 48.18C168.569 43.56 170.623 39.6 173.336 36.3C176.123 33 179.569 30.4333 183.676 28.6C187.783 26.7667 192.586 25.85 198.086 25.85ZM235.473 99V27.5H244.823V58.85H283.323V27.5H292.673V99H283.323V66H244.823V99H235.473ZM299.256 63.25C299.256 57.8967 299.989 52.9467 301.456 48.4C302.996 43.78 305.196 39.82 308.056 36.52C310.989 33.1467 314.619 30.5433 318.946 28.71C323.273 26.8033 328.259 25.85 333.906 25.85C339.553 25.85 344.539 26.8033 348.866 28.71C353.193 30.5433 356.786 33.1467 359.646 36.52C362.579 39.82 364.779 43.78 366.246 48.4C367.786 52.9467 368.556 57.8967 368.556 63.25C368.556 68.6033 367.786 73.59 366.246 78.21C364.779 82.7567 362.579 86.7167 359.646 90.09C356.786 93.39 353.193 95.9933 348.866 97.9C344.539 99.7333 339.553 100.65 333.906 100.65C328.259 100.65 323.273 99.7333 318.946 97.9C314.619 95.9933 310.989 93.39 308.056 90.09C305.196 86.7167 302.996 82.7567 301.456 78.21C299.989 73.59 299.256 68.6033 299.256 63.25ZM309.156 63.25C309.156 68.4567 309.779 73.0033 311.026 76.89C312.346 80.7767 314.106 84.0033 316.306 86.57C318.579 89.0633 321.219 90.9333 324.226 92.18C327.233 93.4267 330.459 94.05 333.906 94.05C337.353 94.05 340.579 93.4267 343.586 92.18C346.593 90.9333 349.196 89.0633 351.396 86.57C353.669 84.0033 355.429 80.7767 356.676 76.89C357.996 73.0033 358.656 68.4567 358.656 63.25C358.656 58.0433 357.996 53.4967 356.676 49.61C355.429 45.7233 353.669 42.5333 351.396 40.04C349.196 37.4733 346.593 35.5667 343.586 34.32C340.579 33.0733 337.353 32.45 333.906 32.45C330.459 32.45 327.233 33.0733 324.226 34.32C321.219 35.5667 318.579 37.4733 316.306 40.04C314.106 42.5333 312.346 45.7233 311.026 49.61C309.779 53.4967 309.156 58.0433 309.156 63.25Z" fill="url(#paint0_linear_219_70)"/>
<path opacity="0.8" d="M390.85 99V27.5H423.3C426.6 27.5 429.607 27.83 432.32 28.49C435.107 29.15 437.49 30.2133 439.47 31.68C441.523 33.0733 443.1 34.9433 444.2 37.29C445.3 39.5633 445.85 42.35 445.85 45.65C445.85 48.95 445.227 51.6267 443.98 53.68C442.733 55.7333 441.34 57.3467 439.8 58.52C438.04 59.9133 436.023 60.94 433.75 61.6V62.15C436.39 62.81 438.773 63.8733 440.9 65.34C442.733 66.5867 444.383 68.31 445.85 70.51C447.317 72.71 448.05 75.6067 448.05 79.2C448.05 82.7933 447.463 85.8367 446.29 88.33C445.117 90.8233 443.43 92.8767 441.23 94.49C439.103 96.03 436.5 97.1667 433.42 97.9C430.413 98.6333 427.04 99 423.3 99H390.85ZM400.2 66V91.85H423.3C427.7 91.85 431.257 90.86 433.97 88.88C436.757 86.8267 438.15 83.6 438.15 79.2C438.15 74.8 436.72 71.5 433.86 69.3C431 67.1 427.48 66 423.3 66H400.2ZM423.3 58.85C427.187 58.85 430.34 57.86 432.76 55.88C435.253 53.8267 436.5 50.6 436.5 46.2C436.5 42.02 435.253 39.05 432.76 37.29C430.34 35.53 427.187 34.65 423.3 34.65H400.2V58.85H423.3ZM463.471 27.5V64.35L498.121 27.5H508.791L481.181 56.32L510.221 99H499.001L475.131 62.59L463.471 74.8V99H454.121V27.5H463.471ZM520.676 27.5L544.986 72.6L565.776 27.5H576.226L548.726 85.25C547.332 88.1833 545.902 90.5667 544.436 92.4C543.042 94.2333 541.576 95.7 540.036 96.8C538.496 97.8267 536.882 98.56 535.196 99C533.509 99.3667 531.786 99.55 530.026 99.55C529.219 99.55 528.412 99.5133 527.606 99.44C526.799 99.44 526.102 99.4033 525.516 99.33C524.782 99.1833 524.086 99.0733 523.426 99V90.97C523.866 91.0433 524.379 91.08 524.966 91.08C525.479 91.1533 526.066 91.2267 526.726 91.3C527.386 91.3 528.119 91.3 528.926 91.3C529.879 91.3 530.832 91.2267 531.786 91.08C532.739 90.9333 533.692 90.6033 534.646 90.09C535.672 89.5033 536.662 88.6233 537.616 87.45C538.569 86.2033 539.522 84.5533 540.476 82.5L510.226 27.5H520.676ZM607.086 25.85C612.733 25.85 617.463 26.62 621.276 28.16C625.089 29.6267 628.169 31.57 630.516 33.99C632.863 36.41 634.586 39.1233 635.686 42.13C636.859 45.1367 637.593 48.1433 637.886 51.15H628.536C627.949 45.0633 625.749 40.4433 621.936 37.29C618.123 34.0633 613.173 32.45 607.086 32.45C600.193 32.45 594.619 35.0167 590.366 40.15C586.113 45.2833 583.986 52.9833 583.986 63.25C583.986 73.5167 586.113 81.2167 590.366 86.35C594.619 91.4833 600.193 94.05 607.086 94.05C613.173 94.05 618.123 92.4733 621.936 89.32C625.749 86.0933 627.949 81.4367 628.536 75.35H637.886C637.593 78.3567 636.859 81.3633 635.686 84.37C634.586 87.3767 632.863 90.09 630.516 92.51C628.169 94.93 625.089 96.91 621.276 98.45C617.463 99.9167 612.733 100.65 607.086 100.65C601.586 100.65 596.783 99.7333 592.676 97.9C588.569 96.0667 585.123 93.5 582.336 90.2C579.623 86.9 577.569 82.9767 576.176 78.43C574.783 73.81 574.086 68.75 574.086 63.25C574.086 57.75 574.783 52.7267 576.176 48.18C577.569 43.56 579.623 39.6 582.336 36.3C585.123 33 588.569 30.4333 592.676 28.6C596.783 26.7667 601.586 25.85 607.086 25.85ZM644.473 99V27.5H653.823V58.85H692.323V27.5H701.673V99H692.323V66H653.823V99H644.473ZM708.256 63.25C708.256 57.8967 708.989 52.9467 710.456 48.4C711.996 43.78 714.196 39.82 717.056 36.52C719.989 33.1467 723.619 30.5433 727.946 28.71C732.273 26.8033 737.259 25.85 742.906 25.85C748.553 25.85 753.539 26.8033 757.866 28.71C762.193 30.5433 765.786 33.1467 768.646 36.52C771.579 39.82 773.779 43.78 775.246 48.4C776.786 52.9467 777.556 57.8967 777.556 63.25C777.556 68.6033 776.786 73.59 775.246 78.21C773.779 82.7567 771.579 86.7167 768.646 90.09C765.786 93.39 762.193 95.9933 757.866 97.9C753.539 99.7333 748.553 100.65 742.906 100.65C737.259 100.65 732.273 99.7333 727.946 97.9C723.619 95.9933 719.989 93.39 717.056 90.09C714.196 86.7167 711.996 82.7567 710.456 78.21C708.989 73.59 708.256 68.6033 708.256 63.25ZM718.156 63.25C718.156 68.4567 718.779 73.0033 720.026 76.89C721.346 80.7767 723.106 84.0033 725.306 86.57C727.579 89.0633 730.219 90.9333 733.226 92.18C736.233 93.4267 739.459 94.05 742.906 94.05C746.353 94.05 749.579 93.4267 752.586 92.18C755.593 90.9333 758.196 89.0633 760.396 86.57C762.669 84.0033 764.429 80.7767 765.676 76.89C766.996 73.0033 767.656 68.4567 767.656 63.25C767.656 58.0433 766.996 53.4967 765.676 49.61C764.429 45.7233 762.669 42.5333 760.396 40.04C758.196 37.4733 755.593 35.5667 752.586 34.32C749.579 33.0733 746.353 32.45 742.906 32.45C739.459 32.45 736.233 33.0733 733.226 34.32C730.219 35.5667 727.579 37.4733 725.306 40.04C723.106 42.5333 721.346 45.7233 720.026 49.61C718.779 53.4967 718.156 58.0433 718.156 63.25Z" fill="#D9D9D9"/>
<path d="M232.2 144.5V181.35L266.85 144.5H277.52L249.91 173.32L278.95 216H267.73L243.86 179.59L232.2 191.8V216H222.85V144.5H232.2ZM316.853 144.5C320.006 144.5 322.976 144.903 325.763 145.71C328.623 146.443 331.079 147.617 333.133 149.23C335.259 150.843 336.909 152.897 338.083 155.39C339.329 157.883 339.953 160.853 339.953 164.3C339.953 167.747 339.329 170.717 338.083 173.21C336.909 175.703 335.259 177.757 333.133 179.37C331.079 180.983 328.623 182.193 325.763 183C322.976 183.733 320.006 184.1 316.853 184.1H293.753V216H284.403V144.5H316.853ZM293.753 176.95H316.303C320.189 176.95 323.453 175.96 326.093 173.98C328.733 171.927 330.053 168.7 330.053 164.3C330.053 159.9 328.733 156.71 326.093 154.73C323.453 152.677 320.189 151.65 316.303 151.65H293.753V176.95ZM350.313 144.5L374.623 189.6L395.413 144.5H405.863L378.363 202.25C376.969 205.183 375.539 207.567 374.073 209.4C372.679 211.233 371.213 212.7 369.673 213.8C368.133 214.827 366.519 215.56 364.833 216C363.146 216.367 361.423 216.55 359.663 216.55C358.856 216.55 358.049 216.513 357.243 216.44C356.436 216.44 355.739 216.403 355.153 216.33C354.419 216.183 353.723 216.073 353.062 216V207.97C353.503 208.043 354.016 208.08 354.603 208.08C355.116 208.153 355.703 208.227 356.363 208.3C357.023 208.3 357.756 208.3 358.563 208.3C359.516 208.3 360.469 208.227 361.423 208.08C362.376 207.933 363.329 207.603 364.283 207.09C365.309 206.503 366.299 205.623 367.253 204.45C368.206 203.203 369.159 201.553 370.113 199.5L339.863 144.5H350.313ZM468.051 144.5V151.65H442.751V216H433.401V151.65H408.101V144.5H468.051ZM466.994 180.25C466.994 174.897 467.727 169.947 469.194 165.4C470.734 160.78 472.934 156.82 475.794 153.52C478.727 150.147 482.357 147.543 486.684 145.71C491.011 143.803 495.997 142.85 501.644 142.85C507.291 142.85 512.277 143.803 516.604 145.71C520.931 147.543 524.524 150.147 527.384 153.52C530.317 156.82 532.517 160.78 533.984 165.4C535.524 169.947 536.294 174.897 536.294 180.25C536.294 185.603 535.524 190.59 533.984 195.21C532.517 199.757 530.317 203.717 527.384 207.09C524.524 210.39 520.931 212.993 516.604 214.9C512.277 216.733 507.291 217.65 501.644 217.65C495.997 217.65 491.011 216.733 486.684 214.9C482.357 212.993 478.727 210.39 475.794 207.09C472.934 203.717 470.734 199.757 469.194 195.21C467.727 190.59 466.994 185.603 466.994 180.25ZM476.894 180.25C476.894 185.457 477.517 190.003 478.764 193.89C480.084 197.777 481.844 201.003 484.044 203.57C486.317 206.063 488.957 207.933 491.964 209.18C494.971 210.427 498.197 211.05 501.644 211.05C505.091 211.05 508.317 210.427 511.324 209.18C514.331 207.933 516.934 206.063 519.134 203.57C521.407 201.003 523.167 197.777 524.414 193.89C525.734 190.003 526.394 185.457 526.394 180.25C526.394 175.043 525.734 170.497 524.414 166.61C523.167 162.723 521.407 159.533 519.134 157.04C516.934 154.473 514.331 152.567 511.324 151.32C508.317 150.073 505.091 149.45 501.644 149.45C498.197 149.45 494.971 150.073 491.964 151.32C488.957 152.567 486.317 154.473 484.044 157.04C481.844 159.533 480.084 162.723 478.764 166.61C477.517 170.497 476.894 175.043 476.894 180.25Z" fill="url(#paint1_linear_219_70)"/>
<path opacity="0.8" d="M566.2 144.5V181.35L600.85 144.5H611.52L583.91 173.32L612.95 216H601.73L577.86 179.59L566.2 191.8V216H556.85V144.5H566.2ZM650.853 144.5C654.006 144.5 656.976 144.903 659.763 145.71C662.623 146.443 665.079 147.617 667.133 149.23C669.259 150.843 670.909 152.897 672.083 155.39C673.329 157.883 673.953 160.853 673.953 164.3C673.953 167.747 673.329 170.717 672.083 173.21C670.909 175.703 669.259 177.757 667.133 179.37C665.079 180.983 662.623 182.193 659.763 183C656.976 183.733 654.006 184.1 650.853 184.1H627.753V216H618.403V144.5H650.853ZM627.753 176.95H650.303C654.189 176.95 657.453 175.96 660.093 173.98C662.733 171.927 664.053 168.7 664.053 164.3C664.053 159.9 662.733 156.71 660.093 154.73C657.453 152.677 654.189 151.65 650.303 151.65H627.753V176.95ZM684.313 144.5L708.623 189.6L729.413 144.5H739.863L712.363 202.25C710.969 205.183 709.539 207.567 708.073 209.4C706.679 211.233 705.213 212.7 703.673 213.8C702.133 214.827 700.519 215.56 698.833 216C697.146 216.367 695.423 216.55 693.663 216.55C692.856 216.55 692.049 216.513 691.243 216.44C690.436 216.44 689.739 216.403 689.153 216.33C688.419 216.183 687.723 216.073 687.062 216V207.97C687.503 208.043 688.016 208.08 688.603 208.08C689.116 208.153 689.703 208.227 690.363 208.3C691.023 208.3 691.756 208.3 692.563 208.3C693.516 208.3 694.469 208.227 695.423 208.08C696.376 207.933 697.329 207.603 698.283 207.09C699.309 206.503 700.299 205.623 701.253 204.45C702.206 203.203 703.159 201.553 704.113 199.5L673.863 144.5H684.313ZM802.051 144.5V151.65H776.751V216H767.401V151.65H742.101V144.5H802.051ZM800.994 180.25C800.994 174.897 801.727 169.947 803.194 165.4C804.734 160.78 806.934 156.82 809.794 153.52C812.727 150.147 816.357 147.543 820.684 145.71C825.011 143.803 829.997 142.85 835.644 142.85C841.291 142.85 846.277 143.803 850.604 145.71C854.931 147.543 858.524 150.147 861.384 153.52C864.317 156.82 866.517 160.78 867.984 165.4C869.524 169.947 870.294 174.897 870.294 180.25C870.294 185.603 869.524 190.59 867.984 195.21C866.517 199.757 864.317 203.717 861.384 207.09C858.524 210.39 854.931 212.993 850.604 214.9C846.277 216.733 841.291 217.65 835.644 217.65C829.997 217.65 825.011 216.733 820.684 214.9C816.357 212.993 812.727 210.39 809.794 207.09C806.934 203.717 804.734 199.757 803.194 195.21C801.727 190.59 800.994 185.603 800.994 180.25ZM810.894 180.25C810.894 185.457 811.517 190.003 812.764 193.89C814.084 197.777 815.844 201.003 818.044 203.57C820.317 206.063 822.957 207.933 825.964 209.18C828.971 210.427 832.197 211.05 835.644 211.05C839.091 211.05 842.317 210.427 845.324 209.18C848.331 207.933 850.934 206.063 853.134 203.57C855.407 201.003 857.167 197.777 858.414 193.89C859.734 190.003 860.394 185.457 860.394 180.25C860.394 175.043 859.734 170.497 858.414 166.61C857.167 162.723 855.407 159.533 853.134 157.04C850.934 154.473 848.331 152.567 845.324 151.32C842.317 150.073 839.091 149.45 835.644 149.45C832.197 149.45 828.971 150.073 825.964 151.32C822.957 152.567 820.317 154.473 818.044 157.04C815.844 159.533 814.084 162.723 812.764 166.61C811.517 170.497 810.894 175.043 810.894 180.25Z" fill="#D9D9D9"/>
<path d="M372.85 336V264.5H405.3C408.6 264.5 411.607 264.83 414.32 265.49C417.107 266.15 419.49 267.213 421.47 268.68C423.523 270.073 425.1 271.943 426.2 274.29C427.3 276.563 427.85 279.35 427.85 282.65C427.85 285.95 427.227 288.627 425.98 290.68C424.733 292.733 423.34 294.347 421.8 295.52C420.04 296.913 418.023 297.94 415.75 298.6V299.15C418.39 299.81 420.773 300.873 422.9 302.34C424.733 303.587 426.383 305.31 427.85 307.51C429.317 309.71 430.05 312.607 430.05 316.2C430.05 319.793 429.463 322.837 428.29 325.33C427.117 327.823 425.43 329.877 423.23 331.49C421.103 333.03 418.5 334.167 415.42 334.9C412.413 335.633 409.04 336 405.3 336H372.85ZM382.2 303V328.85H405.3C409.7 328.85 413.257 327.86 415.97 325.88C418.757 323.827 420.15 320.6 420.15 316.2C420.15 311.8 418.72 308.5 415.86 306.3C413 304.1 409.48 303 405.3 303H382.2ZM405.3 295.85C409.187 295.85 412.34 294.86 414.76 292.88C417.253 290.827 418.5 287.6 418.5 283.2C418.5 279.02 417.253 276.05 414.76 274.29C412.34 272.53 409.187 271.65 405.3 271.65H382.2V295.85H405.3ZM436.121 336V264.5H488.921V271.65H445.471V295.85H481.221V303H445.471V328.85H488.921V336H436.121ZM523.021 262.85C528.668 262.85 533.398 263.62 537.211 265.16C541.025 266.627 544.105 268.57 546.451 270.99C548.798 273.41 550.521 276.123 551.621 279.13C552.795 282.137 553.528 285.143 553.821 288.15H544.471C543.885 282.063 541.685 277.443 537.871 274.29C534.058 271.063 529.108 269.45 523.021 269.45C516.128 269.45 510.555 272.017 506.301 277.15C502.048 282.283 499.921 289.983 499.921 300.25C499.921 310.517 502.048 318.217 506.301 323.35C510.555 328.483 516.128 331.05 523.021 331.05C529.108 331.05 534.058 329.473 537.871 326.32C541.685 323.093 543.885 318.437 544.471 312.35H553.821C553.528 315.357 552.795 318.363 551.621 321.37C550.521 324.377 548.798 327.09 546.451 329.51C544.105 331.93 541.025 333.91 537.211 335.45C533.398 336.917 528.668 337.65 523.021 337.65C517.521 337.65 512.718 336.733 508.611 334.9C504.505 333.067 501.058 330.5 498.271 327.2C495.558 323.9 493.505 319.977 492.111 315.43C490.718 310.81 490.021 305.75 490.021 300.25C490.021 294.75 490.718 289.727 492.111 285.18C493.505 280.56 495.558 276.6 498.271 273.3C501.058 270 504.505 267.433 508.611 265.6C512.718 263.767 517.521 262.85 523.021 262.85ZM560.409 336V264.5H613.209V271.65H569.759V295.85H605.509V303H569.759V328.85H613.209V336H560.409ZM616.513 336V328.19C616.733 328.263 616.99 328.3 617.283 328.3C617.87 328.447 618.53 328.52 619.263 328.52C621.17 328.52 622.966 328.043 624.653 327.09C626.34 326.137 627.806 324.193 629.053 321.26C630.3 318.253 631.253 314.037 631.913 308.61C632.646 303.183 633.013 295.997 633.013 287.05V264.5H679.763V336H670.413V271.65H641.813V288.15C641.813 297.243 641.373 304.87 640.493 311.03C639.686 317.19 638.44 322.177 636.753 325.99C635.066 329.73 632.94 332.443 630.373 334.13C627.88 335.743 624.91 336.55 621.463 336.55C620.803 336.55 620.143 336.513 619.483 336.44C618.896 336.44 618.383 336.403 617.943 336.33C617.43 336.183 616.953 336.073 616.513 336ZM686.389 300.25C686.389 294.897 687.122 289.947 688.589 285.4C690.129 280.78 692.329 276.82 695.189 273.52C698.122 270.147 701.752 267.543 706.079 265.71C710.405 263.803 715.392 262.85 721.039 262.85C726.685 262.85 731.672 263.803 735.999 265.71C740.325 267.543 743.919 270.147 746.779 273.52C749.712 276.82 751.912 280.78 753.379 285.4C754.919 289.947 755.689 294.897 755.689 300.25C755.689 305.603 754.919 310.59 753.379 315.21C751.912 319.757 749.712 323.717 746.779 327.09C743.919 330.39 740.325 332.993 735.999 334.9C731.672 336.733 726.685 337.65 721.039 337.65C715.392 337.65 710.405 336.733 706.079 334.9C701.752 332.993 698.122 330.39 695.189 327.09C692.329 323.717 690.129 319.757 688.589 315.21C687.122 310.59 686.389 305.603 686.389 300.25ZM696.289 300.25C696.289 305.457 696.912 310.003 698.159 313.89C699.479 317.777 701.239 321.003 703.439 323.57C705.712 326.063 708.352 327.933 711.359 329.18C714.365 330.427 717.592 331.05 721.039 331.05C724.485 331.05 727.712 330.427 730.719 329.18C733.725 327.933 736.329 326.063 738.529 323.57C740.802 321.003 742.562 317.777 743.809 313.89C745.129 310.003 745.789 305.457 745.789 300.25C745.789 295.043 745.129 290.497 743.809 286.61C742.562 282.723 740.802 279.533 738.529 277.04C736.329 274.473 733.725 272.567 730.719 271.32C727.712 270.073 724.485 269.45 721.039 269.45C717.592 269.45 714.365 270.073 711.359 271.32C708.352 272.567 705.712 274.473 703.439 277.04C701.239 279.533 699.479 282.723 698.159 286.61C696.912 290.497 696.289 295.043 696.289 300.25Z" fill="url(#paint2_linear_219_70)"/>
<path opacity="0.8" d="M-36.15 336V264.5H-3.7C-0.399997 264.5 2.60667 264.83 5.32 265.49C8.10667 266.15 10.49 267.213 12.47 268.68C14.5233 270.073 16.1 271.943 17.2 274.29C18.3 276.563 18.85 279.35 18.85 282.65C18.85 285.95 18.2267 288.627 16.98 290.68C15.7333 292.733 14.34 294.347 12.8 295.52C11.04 296.913 9.02334 297.94 6.75 298.6V299.15C9.39 299.81 11.7733 300.873 13.9 302.34C15.7333 303.587 17.3833 305.31 18.85 307.51C20.3167 309.71 21.05 312.607 21.05 316.2C21.05 319.793 20.4633 322.837 19.29 325.33C18.1167 327.823 16.43 329.877 14.23 331.49C12.1033 333.03 9.5 334.167 6.42 334.9C3.41333 335.633 0.0400014 336 -3.7 336H-36.15ZM-26.8 303V328.85H-3.7C0.700002 328.85 4.25667 327.86 6.97 325.88C9.75667 323.827 11.15 320.6 11.15 316.2C11.15 311.8 9.72 308.5 6.86 306.3C4 304.1 0.480002 303 -3.7 303H-26.8ZM-3.7 295.85C0.186668 295.85 3.34 294.86 5.76 292.88C8.25333 290.827 9.5 287.6 9.5 283.2C9.5 279.02 8.25333 276.05 5.76 274.29C3.34 272.53 0.186668 271.65 -3.7 271.65H-26.8V295.85H-3.7ZM27.1215 336V264.5H79.9215V271.65H36.4715V295.85H72.2215V303H36.4715V328.85H79.9215V336H27.1215ZM114.021 262.85C119.668 262.85 124.398 263.62 128.211 265.16C132.025 266.627 135.105 268.57 137.451 270.99C139.798 273.41 141.521 276.123 142.621 279.13C143.795 282.137 144.528 285.143 144.821 288.15H135.471C134.885 282.063 132.685 277.443 128.871 274.29C125.058 271.063 120.108 269.45 114.021 269.45C107.128 269.45 101.555 272.017 97.3015 277.15C93.0482 282.283 90.9215 289.983 90.9215 300.25C90.9215 310.517 93.0482 318.217 97.3015 323.35C101.555 328.483 107.128 331.05 114.021 331.05C120.108 331.05 125.058 329.473 128.871 326.32C132.685 323.093 134.885 318.437 135.471 312.35H144.821C144.528 315.357 143.795 318.363 142.621 321.37C141.521 324.377 139.798 327.09 137.451 329.51C135.105 331.93 132.025 333.91 128.211 335.45C124.398 336.917 119.668 337.65 114.021 337.65C108.521 337.65 103.718 336.733 99.6115 334.9C95.5048 333.067 92.0582 330.5 89.2715 327.2C86.5582 323.9 84.5048 319.977 83.1115 315.43C81.7182 310.81 81.0215 305.75 81.0215 300.25C81.0215 294.75 81.7182 289.727 83.1115 285.18C84.5048 280.56 86.5582 276.6 89.2715 273.3C92.0582 270 95.5048 267.433 99.6115 265.6C103.718 263.767 108.521 262.85 114.021 262.85ZM151.409 336V264.5H204.209V271.65H160.759V295.85H196.509V303H160.759V328.85H204.209V336H151.409ZM207.513 336V328.19C207.733 328.263 207.99 328.3 208.283 328.3C208.87 328.447 209.53 328.52 210.263 328.52C212.17 328.52 213.966 328.043 215.653 327.09C217.34 326.137 218.806 324.193 220.053 321.26C221.3 318.253 222.253 314.037 222.913 308.61C223.646 303.183 224.013 295.997 224.013 287.05V264.5H270.763V336H261.413V271.65H232.813V288.15C232.813 297.243 232.373 304.87 231.493 311.03C230.686 317.19 229.44 322.177 227.753 325.99C226.066 329.73 223.94 332.443 221.373 334.13C218.88 335.743 215.91 336.55 212.463 336.55C211.803 336.55 211.143 336.513 210.483 336.44C209.896 336.44 209.383 336.403 208.943 336.33C208.43 336.183 207.953 336.073 207.513 336ZM277.389 300.25C277.389 294.897 278.122 289.947 279.589 285.4C281.129 280.78 283.329 276.82 286.189 273.52C289.122 270.147 292.752 267.543 297.079 265.71C301.405 263.803 306.392 262.85 312.039 262.85C317.685 262.85 322.672 263.803 326.999 265.71C331.325 267.543 334.919 270.147 337.779 273.52C340.712 276.82 342.912 280.78 344.379 285.4C345.919 289.947 346.689 294.897 346.689 300.25C346.689 305.603 345.919 310.59 344.379 315.21C342.912 319.757 340.712 323.717 337.779 327.09C334.919 330.39 331.325 332.993 326.999 334.9C322.672 336.733 317.685 337.65 312.039 337.65C306.392 337.65 301.405 336.733 297.079 334.9C292.752 332.993 289.122 330.39 286.189 327.09C283.329 323.717 281.129 319.757 279.589 315.21C278.122 310.59 277.389 305.603 277.389 300.25ZM287.289 300.25C287.289 305.457 287.912 310.003 289.159 313.89C290.479 317.777 292.239 321.003 294.439 323.57C296.712 326.063 299.352 327.933 302.359 329.18C305.365 330.427 308.592 331.05 312.039 331.05C315.485 331.05 318.712 330.427 321.719 329.18C324.725 327.933 327.329 326.063 329.529 323.57C331.802 321.003 333.562 317.777 334.809 313.89C336.129 310.003 336.789 305.457 336.789 300.25C336.789 295.043 336.129 290.497 334.809 286.61C333.562 282.723 331.802 279.533 329.529 277.04C327.329 274.473 324.725 272.567 321.719 271.32C318.712 270.073 315.485 269.45 312.039 269.45C308.592 269.45 305.365 270.073 302.359 271.32C299.352 272.567 296.712 274.473 294.439 277.04C292.239 279.533 290.479 282.723 289.159 286.61C287.912 290.497 287.289 295.043 287.289 300.25Z" fill="#D9D9D9"/>
<path opacity="0.8" d="M-101.305 144.5V181.35L-66.6549 144.5H-55.9849L-83.5949 173.32L-54.5549 216H-65.7749L-89.6449 179.59L-101.305 191.8V216H-110.655V144.5H-101.305ZM-16.6521 144.5C-13.4988 144.5 -10.5288 144.903 -7.74215 145.71C-4.88215 146.443 -2.42548 147.617 -0.372147 149.23C1.75452 150.843 3.40452 152.897 4.57785 155.39C5.82452 157.883 6.44785 160.853 6.44785 164.3C6.44785 167.747 5.82452 170.717 4.57785 173.21C3.40452 175.703 1.75452 177.757 -0.372147 179.37C-2.42548 180.983 -4.88215 182.193 -7.74215 183C-10.5288 183.733 -13.4988 184.1 -16.6521 184.1H-39.7521V216H-49.1021V144.5H-16.6521ZM-39.7521 176.95H-17.2021C-13.3155 176.95 -10.0521 175.96 -7.41214 173.98C-4.77215 171.927 -3.45215 168.7 -3.45215 164.3C-3.45215 159.9 -4.77215 156.71 -7.41214 154.73C-10.0521 152.677 -13.3155 151.65 -17.2021 151.65H-39.7521V176.95ZM16.8076 144.5L41.1176 189.6L61.9076 144.5H72.3576L44.8576 202.25C43.4643 205.183 42.0343 207.567 40.5676 209.4C39.1743 211.233 37.7076 212.7 36.1676 213.8C34.6276 214.827 33.0143 215.56 31.3276 216C29.641 216.367 27.9176 216.55 26.1576 216.55C25.351 216.55 24.5443 216.513 23.7376 216.44C22.931 216.44 22.2343 216.403 21.6476 216.33C20.9143 216.183 20.2176 216.073 19.5576 216V207.97C19.9976 208.043 20.511 208.08 21.0976 208.08C21.611 208.153 22.1976 208.227 22.8576 208.3C23.5176 208.3 24.251 208.3 25.0576 208.3C26.011 208.3 26.9643 208.227 27.9176 208.08C28.871 207.933 29.8243 207.603 30.7776 207.09C31.8043 206.503 32.7943 205.623 33.7476 204.45C34.701 203.203 35.6543 201.553 36.6076 199.5L6.35762 144.5H16.8076ZM134.546 144.5V151.65H109.246V216H99.8963V151.65H74.5963V144.5H134.546ZM133.489 180.25C133.489 174.897 134.223 169.947 135.689 165.4C137.229 160.78 139.429 156.82 142.289 153.52C145.223 150.147 148.853 147.543 153.179 145.71C157.506 143.803 162.493 142.85 168.139 142.85C173.786 142.85 178.773 143.803 183.099 145.71C187.426 147.543 191.019 150.147 193.879 153.52C196.813 156.82 199.013 160.78 200.479 165.4C202.019 169.947 202.789 174.897 202.789 180.25C202.789 185.603 202.019 190.59 200.479 195.21C199.013 199.757 196.813 203.717 193.879 207.09C191.019 210.39 187.426 212.993 183.099 214.9C178.773 216.733 173.786 217.65 168.139 217.65C162.493 217.65 157.506 216.733 153.179 214.9C148.853 212.993 145.223 210.39 142.289 207.09C139.429 203.717 137.229 199.757 135.689 195.21C134.223 190.59 133.489 185.603 133.489 180.25ZM143.389 180.25C143.389 185.457 144.013 190.003 145.259 193.89C146.579 197.777 148.339 201.003 150.539 203.57C152.813 206.063 155.453 207.933 158.459 209.18C161.466 210.427 164.693 211.05 168.139 211.05C171.586 211.05 174.813 210.427 177.819 209.18C180.826 207.933 183.429 206.063 185.629 203.57C187.903 201.003 189.663 197.777 190.909 193.89C192.229 190.003 192.889 185.457 192.889 180.25C192.889 175.043 192.229 170.497 190.909 166.61C189.663 162.723 187.903 159.533 185.629 157.04C183.429 154.473 180.826 152.567 177.819 151.32C174.813 150.073 171.586 149.45 168.139 149.45C164.693 149.45 161.466 150.073 158.459 151.32C155.453 152.567 152.813 154.473 150.539 157.04C148.339 159.533 146.579 162.723 145.259 166.61C144.013 170.497 143.389 175.043 143.389 180.25Z" fill="#D9D9D9"/>
</g>
<defs>
<linearGradient id="paint0_linear_219_70" x1="-22" y1="66" x2="372" y2="66" gradientUnits="userSpaceOnUse">
<stop stop-color="#DBDBDB" stop-opacity="0.8"/>
<stop offset="1" stop-color="#E8D41A"/>
</linearGradient>
<linearGradient id="paint1_linear_219_70" x1="219" y1="183" x2="540" y2="183" gradientUnits="userSpaceOnUse">
<stop stop-color="#D9D9D9" stop-opacity="0.8"/>
<stop offset="1" stop-color="#E8D41A"/>
</linearGradient>
<linearGradient id="paint2_linear_219_70" x1="369" y1="303" x2="759" y2="303" gradientUnits="userSpaceOnUse">
<stop stop-color="#D9D9D9" stop-opacity="0.8"/>
<stop offset="1" stop-color="#E8D41A"/>
</linearGradient>
</defs>
</svg>
